<?xml version="1.0" encoding="utf-8"?>
<!-- Generator: Adobe Illustrator 26.2.1, SVG Export Plug-In . SVG Version: 6.00 Build 0)  -->
<svg version="1.1" id="Layer_1" xmlns="http://www.w3.org/2000/svg" xmlns:xlink="http://www.w3.org/1999/xlink" x="0px" y="0px"
	 viewBox="0 0 889.02 235.54" style="enable-background:new 0 0 889.02 235.54;" xml:space="preserve">
<g>
	<path d="M325.02,82.77c-0.37-0.63-0.81-0.91-1.47-0.91c-0.93,0-1.63,0.62-1.63,1.45c0,0.6,0.37,1.05,1.11,1.37l0.17,0.07l0.17,0.07
		l0.18,0.07c0.14,0.06,0.28,0.13,0.4,0.21c0.24,0.17,0.37,0.41,0.37,0.72c0,0.52-0.37,0.9-0.89,0.9c-0.33,0-0.64-0.16-0.78-0.42
		c-0.08-0.14-0.11-0.27-0.15-0.59l-0.83,0.19c0.15,1.02,0.79,1.6,1.76,1.6c0.99,0,1.72-0.75,1.72-1.76c0-0.72-0.4-1.21-1.27-1.58
		c-0.77-0.31-0.7-0.28-0.87-0.4c-0.18-0.12-0.26-0.28-0.26-0.46c0-0.38,0.34-0.68,0.79-0.68c0.37,0,0.56,0.12,0.81,0.54
		L325.02,82.77L325.02,82.77z M329.54,82.74v-0.77h-3v5.43h3v-0.77h-2.17v-1.81h2.11v-0.77h-2.11v-1.3H329.54L329.54,82.74z
		 M331.87,81.97h-0.82v5.43h0.82V81.97L331.87,81.97z M335.01,82.74h1.25v-0.77h-3.31v0.77h1.25v4.66h0.82V82.74L335.01,82.74z
		 M340.78,82.73v4.67h0.82v-5.43h-1.31l-0.45,0.76H340.78L340.78,82.73z M345.85,82.73l-2.71,4.44l0.65,0.42l3.43-5.62h-4.05v0.76
		H345.85L345.85,82.73z M349.1,84.87c0.33,0.01,0.46,0.02,0.61,0.09c0.3,0.12,0.48,0.44,0.48,0.84c0,0.54-0.39,0.94-0.91,0.94
		c-0.53,0-0.86-0.29-0.94-0.81h-0.79c0.03,0.35,0.07,0.52,0.18,0.73c0.28,0.51,0.86,0.83,1.51,0.83c1.04,0,1.77-0.68,1.77-1.65
		c0-0.59-0.23-1.03-0.67-1.3c0.4-0.28,0.59-0.66,0.59-1.17c0-0.86-0.67-1.48-1.61-1.48c-0.95,0-1.45,0.46-1.62,1.47h0.81
		c0.11-0.54,0.33-0.73,0.79-0.73c0.5,0,0.83,0.33,0.83,0.8c0,0.3-0.16,0.59-0.4,0.68c-0.14,0.07-0.26,0.07-0.62,0.07V84.87
		L349.1,84.87z M354.78,82.73l-2.71,4.44l0.65,0.42l3.43-5.62h-4.05v0.76H354.78L354.78,82.73z"/>
	<path d="M322.77,73.1h-0.82v5.43h0.82V73.1L322.77,73.1z M324.47,78.53h0.82v-3.8l3.96,4.14V73.1h-0.82v3.77l-3.96-4.14V78.53
		L324.47,78.53z M334.23,76.33h0.38c1.12,0,1.84-0.63,1.84-1.61c0-0.5-0.23-0.99-0.59-1.27c-0.35-0.26-0.69-0.34-1.52-0.34h-0.93
		v5.43h0.82V76.33L334.23,76.33z M334.23,75.57v-1.71h0.27c0.78,0,1.17,0.28,1.17,0.83c0,0.59-0.37,0.88-1.13,0.88H334.23
		L334.23,75.57z M338.41,73.1h-0.82v3.49c0,1.17,0.85,2.04,2.01,2.04c1.15,0,2-0.87,2-2.04V73.1h-0.82v3.27
		c0,0.48-0.04,0.71-0.17,0.94c-0.2,0.34-0.59,0.55-1.01,0.55c-0.43,0-0.82-0.21-1.02-0.55c-0.13-0.23-0.17-0.46-0.17-0.94V73.1
		L338.41,73.1z M343.3,78.53h1.25c0.73,0,1.07-0.1,1.43-0.39c0.35-0.29,0.55-0.71,0.55-1.17c0-0.64-0.36-1.16-0.93-1.36
		c0.3-0.27,0.44-0.59,0.44-0.97c0-0.51-0.24-1-0.62-1.26c-0.29-0.19-0.65-0.28-1.3-0.28h-0.81V78.53L343.3,78.53z M344.12,75.44
		v-1.58h0.29c0.55,0,0.86,0.28,0.86,0.78c0,0.52-0.3,0.8-0.89,0.8H344.12L344.12,75.44z M344.12,77.76v-1.64h0.42
		c0.79,0,1.18,0.28,1.18,0.84c0,0.51-0.39,0.8-1.09,0.8H344.12L344.12,77.76z M348.74,73.1h-0.82v5.43h2.42v-0.77h-1.6V73.1
		L348.74,73.1z M352.58,73.1h-0.82v5.43h0.82V73.1L352.58,73.1z M358.12,73.39c-0.5-0.29-0.88-0.4-1.46-0.4
		c-1.53,0-2.82,1.29-2.82,2.81c0,1.6,1.24,2.83,2.82,2.83c0.51,0,0.98-0.13,1.46-0.41v-0.98c-0.52,0.44-0.94,0.62-1.44,0.62
		c-1.15,0-2.02-0.88-2.02-2.04c0-1.15,0.88-2.06,1.99-2.06c0.55,0,0.96,0.17,1.47,0.59V73.39L358.12,73.39z M362.66,77.21l0.57,1.32
		h0.9l-2.59-5.77l-2.69,5.77h0.88l0.61-1.32H362.66L362.66,77.21z M362.33,76.44h-1.65l0.84-1.84L362.33,76.44L362.33,76.44z
		 M371.68,73.39c-0.5-0.29-0.88-0.4-1.46-0.4c-1.53,0-2.82,1.29-2.82,2.81c0,1.6,1.24,2.83,2.82,2.83c0.5,0,0.98-0.13,1.46-0.41
		v-0.98c-0.52,0.44-0.94,0.62-1.44,0.62c-1.15,0-2.02-0.88-2.02-2.04c0-1.15,0.88-2.06,1.99-2.06c0.55,0,0.96,0.17,1.47,0.59V73.39
		L371.68,73.39z M375.58,73c-1.58,0-2.85,1.27-2.85,2.84c0,1.57,1.25,2.8,2.85,2.8c1.56,0,2.83-1.27,2.83-2.82
		C378.4,74.27,377.13,73,375.58,73L375.58,73z M375.57,73.77c1.14,0,2.01,0.89,2.01,2.06c0,1.12-0.9,2.04-2.01,2.04
		c-1.12,0-2.02-0.9-2.02-2.04C373.55,74.66,374.43,73.77,375.57,73.77L375.57,73.77z M379.27,78.53h0.85l0.59-3.28l1.56,3.53
		l1.6-3.53l0.52,3.27h0.84l-1.03-5.84l-1.93,4.22l-1.86-4.22L379.27,78.53L379.27,78.53z M386.44,78.53h0.85l0.59-3.28l1.56,3.53
		l1.6-3.53l0.52,3.27h0.84l-1.03-5.84l-1.93,4.22l-1.86-4.22L386.44,78.53L386.44,78.53z M396.19,73c-1.58,0-2.85,1.27-2.85,2.84
		c0,1.57,1.25,2.8,2.85,2.8c1.56,0,2.83-1.27,2.83-2.82C399.02,74.27,397.75,73,396.19,73L396.19,73z M396.19,73.77
		c1.14,0,2.01,0.89,2.01,2.06c0,1.12-0.9,2.04-2.01,2.04c-1.12,0-2.02-0.9-2.02-2.04C394.17,74.66,395.05,73.77,396.19,73.77
		L396.19,73.77z M400.37,78.53h1.12c0.97,0,1.44-0.12,1.99-0.52c0.71-0.51,1.09-1.27,1.09-2.18c0-0.93-0.37-1.7-1.05-2.2
		c-0.53-0.38-1.08-0.53-2.01-0.53h-1.14V78.53L400.37,78.53z M401.19,77.76v-3.89h0.37c0.66,0,1.09,0.11,1.45,0.38
		c0.46,0.34,0.74,0.92,0.74,1.56c0,0.64-0.27,1.21-0.74,1.56c-0.38,0.28-0.79,0.39-1.45,0.39H401.19L401.19,77.76z M408.82,77.21
		l0.57,1.32h0.9l-2.59-5.77l-2.69,5.77h0.88l0.61-1.32H408.82L408.82,77.21z M408.49,76.44h-1.64l0.84-1.84L408.49,76.44
		L408.49,76.44z"/>
	<path d="M210.27,80.23v1.48h4.25c-0.06,0.88-0.21,1.44-0.58,2.02c-0.86,1.44-2.68,2.45-4.4,2.45c-3.17,0-5.81-2.64-5.81-5.86
		c0-3.32,2.62-5.94,5.94-5.94c1.89,0,3.37,0.84,4.76,2.68l1.18-1.07c-1.82-2.17-3.6-3.11-5.94-3.11c-4.2,0-7.55,3.28-7.55,7.42
		c0,4.03,3.32,7.38,7.34,7.38c2.12,0,4.16-0.97,5.45-2.57c0.97-1.2,1.33-2.47,1.33-4.5v-0.36H210.27L210.27,80.23z M225.72,72.87
		c-4.1,0-7.46,3.35-7.46,7.42c0,4.08,3.35,7.38,7.46,7.38c4.05,0,7.42-3.35,7.42-7.4C233.14,76.22,229.77,72.87,225.72,72.87
		L225.72,72.87z M225.69,74.37c3.24,0,5.83,2.64,5.83,5.92c0,3.24-2.62,5.88-5.83,5.88s-5.83-2.64-5.83-5.88
		C219.86,76.99,222.46,74.37,225.69,74.37L225.69,74.37z M223.66,69.5c-0.6,0-1.09,0.49-1.09,1.09c0,0.6,0.49,1.09,1.09,1.09
		c0.6,0,1.09-0.49,1.09-1.09C224.75,70,224.26,69.5,223.66,69.5L223.66,69.5z M227.73,69.5c-0.6,0-1.09,0.49-1.09,1.09
		c0,0.6,0.49,1.09,1.09,1.09c0.6,0,1.09-0.49,1.09-1.09C228.83,70,228.33,69.5,227.73,69.5L227.73,69.5z M238.61,74.59h3.47v-1.48
		h-8.54v1.48H237v12.83h1.61V74.59L238.61,74.59z M248.37,74.59h3.47v-1.48h-8.54v1.48h3.45v12.83h1.61V74.59L248.37,74.59z
		 M255.45,73.11h-1.61v14.31h1.61V73.11L255.45,73.11z M259.11,87.41h1.61V76.39l11.13,11.67V73.11h-1.61V84.2l-11.13-11.69V87.41
		L259.11,87.41z M282.88,80.23v1.48h4.25c-0.06,0.88-0.21,1.44-0.58,2.02c-0.86,1.44-2.68,2.45-4.4,2.45
		c-3.17,0-5.81-2.64-5.81-5.86c0-3.32,2.62-5.94,5.94-5.94c1.89,0,3.37,0.84,4.76,2.68l1.18-1.07c-1.82-2.17-3.6-3.11-5.94-3.11
		c-4.2,0-7.55,3.28-7.55,7.42c0,4.03,3.32,7.38,7.34,7.38c2.12,0,4.16-0.97,5.45-2.57c0.97-1.2,1.33-2.47,1.33-4.5v-0.36H282.88
		L282.88,80.23z M299.09,74.59v-1.48h-7.4v14.31h7.4v-1.48h-5.79v-5.6h5.64v-1.48h-5.64v-4.27H299.09L299.09,74.59z M301.91,87.41
		h1.61V76.39l11.13,11.67V73.11h-1.61V84.2l-11.13-11.69V87.41L301.91,87.41z"/>
	<path d="M360.37,48.8h-1.61V58c0,1.57,0.26,2.51,0.94,3.39c0.92,1.22,2.51,1.97,4.16,1.97c1.63,0,3.2-0.75,4.14-1.97
		c0.69-0.88,0.94-1.84,0.94-3.39v-9.2h-1.61v8.77c0,1.48-0.11,2.12-0.47,2.75c-0.56,0.9-1.78,1.54-3,1.54
		c-1.24,0-2.47-0.64-3.02-1.54c-0.36-0.62-0.47-1.27-0.47-2.75V48.8L360.37,48.8z M372.62,63.1h1.61V52.08l11.13,11.67V48.8h-1.61
		v11.09L372.62,48.2V63.1L372.62,63.1z M390.67,48.8h-1.61V63.1h1.61V48.8L390.67,48.8z M394.33,48.8h-1.76l5.79,15.14l5.81-15.14
		h-1.74l-4.05,10.9L394.33,48.8L394.33,48.8z M413.5,50.28V48.8h-7.4V63.1h7.4v-1.48h-5.79v-5.6h5.64v-1.48h-5.64v-4.27H413.5
		L413.5,50.28z M420.05,56.71c2.21-0.21,3.6-1.74,3.6-3.97c0-1.29-0.62-2.51-1.59-3.17c-0.82-0.56-1.8-0.77-3.43-0.77h-2.32V63.1
		h1.61v-6.26h0.41l4.31,6.26h1.95L420.05,56.71L420.05,56.71z M417.93,55.42v-5.15h0.94c2.1,0,3.22,0.86,3.22,2.47
		c0,1.76-1.09,2.68-3.15,2.68H417.93L417.93,55.42z M434.23,50.79c-0.86-1.48-2.08-2.23-3.69-2.23c-2.27,0-4.01,1.59-4.01,3.67
		c0,1.61,0.84,2.62,2.9,3.54l0.43,0.19l0.43,0.19l0.43,0.21c0.47,0.19,0.88,0.41,1.24,0.64c0.79,0.49,1.18,1.16,1.18,2.04
		c0,1.59-1.27,2.81-2.92,2.81c-1.5,0-2.49-0.9-2.87-2.62l-1.54,0.43c0.56,2.36,2.14,3.69,4.44,3.69c2.53,0,4.5-1.95,4.5-4.42
		c0-1.78-0.94-2.92-3.24-3.93l-0.45-0.19l-0.45-0.19l-0.45-0.21c-0.41-0.17-0.77-0.39-1.12-0.6c-0.6-0.41-0.9-0.92-0.9-1.54
		c0-1.27,1.03-2.21,2.36-2.21c1.12,0,1.74,0.39,2.47,1.54L434.23,50.79L434.23,50.79z M439.21,48.8h-1.61V63.1h1.61V48.8
		L439.21,48.8z M446.23,50.28h3.47V48.8h-8.54v1.48h3.45V63.1h1.61V50.28L446.23,50.28z M458.64,59.05l1.69,4.05h1.76l-6.43-14.99
		l-6.59,14.99h1.74l1.72-4.05H458.64L458.64,59.05z M458.02,57.57h-4.83l2.45-5.73L458.02,57.57L458.02,57.57z M453.69,45.19
		c-0.6,0-1.09,0.49-1.09,1.09c0,0.6,0.49,1.09,1.09,1.09c0.6,0,1.09-0.49,1.09-1.09C454.78,45.69,454.29,45.19,453.69,45.19
		L453.69,45.19z M457.76,45.19c-0.6,0-1.09,0.49-1.09,1.09c0,0.6,0.49,1.09,1.09,1.09c0.6,0,1.09-0.49,1.09-1.09
		C458.86,45.69,458.36,45.19,457.76,45.19L457.76,45.19z M466.53,50.28h3.47V48.8h-8.54v1.48h3.45V63.1h1.61V50.28L466.53,50.28z"/>
	<path d="M210.27,55.92v1.48h4.25c-0.06,0.88-0.21,1.44-0.58,2.02c-0.86,1.44-2.68,2.45-4.4,2.45c-3.17,0-5.81-2.64-5.81-5.86
		c0-3.32,2.62-5.94,5.94-5.94c1.89,0,3.37,0.84,4.76,2.68l1.18-1.07c-1.82-2.17-3.6-3.11-5.94-3.11c-4.2,0-7.55,3.28-7.55,7.42
		c0,4.03,3.32,7.38,7.34,7.38c2.12,0,4.16-0.97,5.45-2.57c0.97-1.2,1.33-2.47,1.33-4.5v-0.36H210.27L210.27,55.92z M226.48,50.28
		V48.8h-7.4V63.1h7.4v-1.48h-5.79v-5.6h5.64v-1.48h-5.64v-4.27H226.48L226.48,50.28z M235.86,48.56c-4.1,0-7.46,3.35-7.46,7.42
		c0,4.08,3.35,7.38,7.46,7.38c4.05,0,7.42-3.35,7.42-7.4C243.28,51.91,239.92,48.56,235.86,48.56L235.86,48.56z M235.84,50.06
		c3.24,0,5.83,2.64,5.83,5.92c0,3.24-2.62,5.88-5.83,5.88s-5.83-2.64-5.83-5.88C230.01,52.68,232.6,50.06,235.84,50.06L235.84,50.06
		z M249.86,56.71c2.21-0.21,3.6-1.74,3.6-3.97c0-1.29-0.62-2.51-1.59-3.17c-0.82-0.56-1.8-0.77-3.43-0.77h-2.32V63.1h1.61v-6.26
		h0.41l4.31,6.26h1.95L249.86,56.71L249.86,56.71z M247.74,55.42v-5.15h0.94c2.1,0,3.22,0.86,3.22,2.47c0,1.76-1.09,2.68-3.15,2.68
		H247.74L247.74,55.42z M263.75,55.92v1.48H268c-0.06,0.88-0.21,1.44-0.58,2.02c-0.86,1.44-2.68,2.45-4.4,2.45
		c-3.17,0-5.81-2.64-5.81-5.86c0-3.32,2.62-5.94,5.94-5.94c1.89,0,3.37,0.84,4.76,2.68l1.18-1.07c-1.82-2.17-3.6-3.11-5.94-3.11
		c-4.2,0-7.55,3.28-7.55,7.42c0,4.03,3.32,7.38,7.34,7.38c2.12,0,4.16-0.97,5.45-2.57c0.97-1.2,1.33-2.47,1.33-4.5v-0.36H263.75
		L263.75,55.92z M271.85,56.06v1.37h3.88v-1.37H271.85L271.85,56.06z M286.09,59.05l1.69,4.05h1.76l-6.43-14.99l-6.59,14.99h1.74
		l1.72-4.05H286.09L286.09,59.05z M285.47,57.57h-4.83l2.45-5.73L285.47,57.57L285.47,57.57z M292.42,48.8h-1.61V58
		c0,1.57,0.26,2.51,0.94,3.39c0.92,1.22,2.51,1.97,4.16,1.97c1.63,0,3.2-0.75,4.14-1.97c0.69-0.88,0.94-1.84,0.94-3.39v-9.2h-1.61
		v8.77c0,1.48-0.11,2.12-0.47,2.75c-0.56,0.9-1.78,1.54-3,1.54c-1.24,0-2.47-0.64-3.02-1.54c-0.36-0.62-0.47-1.27-0.47-2.75V48.8
		L292.42,48.8z M311.93,55.92v1.48h4.25c-0.06,0.88-0.21,1.44-0.58,2.02c-0.86,1.44-2.68,2.45-4.4,2.45c-3.17,0-5.81-2.64-5.81-5.86
		c0-3.32,2.62-5.94,5.94-5.94c1.89,0,3.37,0.84,4.76,2.68l1.18-1.07c-1.82-2.17-3.6-3.11-5.94-3.11c-4.2,0-7.55,3.28-7.55,7.42
		c0,4.03,3.32,7.38,7.34,7.38c2.12,0,4.16-0.97,5.45-2.57c0.97-1.2,1.33-2.47,1.33-4.5v-0.36H311.93L311.93,55.92z M322.25,48.8
		h-1.61V58c0,1.57,0.26,2.51,0.94,3.39c0.92,1.22,2.51,1.97,4.16,1.97c1.63,0,3.2-0.75,4.14-1.97c0.69-0.88,0.94-1.84,0.94-3.39
		v-9.2h-1.61v8.77c0,1.48-0.11,2.12-0.47,2.75c-0.56,0.9-1.78,1.54-3,1.54c-1.24,0-2.47-0.64-3.02-1.54
		c-0.36-0.62-0.47-1.27-0.47-2.75V48.8L322.25,48.8z M341.88,50.79c-0.86-1.48-2.08-2.23-3.69-2.23c-2.27,0-4.01,1.59-4.01,3.67
		c0,1.61,0.84,2.62,2.9,3.54l0.43,0.19l0.43,0.19l0.43,0.21c0.47,0.19,0.88,0.41,1.24,0.64c0.79,0.49,1.18,1.16,1.18,2.04
		c0,1.59-1.27,2.81-2.92,2.81c-1.5,0-2.49-0.9-2.87-2.62l-1.54,0.43c0.56,2.36,2.14,3.69,4.44,3.69c2.53,0,4.5-1.95,4.5-4.42
		c0-1.78-0.94-2.92-3.24-3.93l-0.45-0.19l-0.45-0.19l-0.45-0.21c-0.41-0.17-0.77-0.39-1.12-0.6c-0.6-0.41-0.9-0.92-0.9-1.54
		c0-1.27,1.03-2.21,2.36-2.21c1.12,0,1.74,0.39,2.47,1.54L341.88,50.79L341.88,50.79z M348.72,50.28h3.47V48.8h-8.54v1.48h3.45V63.1
		h1.61V50.28L348.72,50.28z M352.26,56.06v1.37h3.88v-1.37H352.26L352.26,56.06z"/>
	<path d="M171.5,38.69l-17.38,37.75c-2,3.57-5.79,6-10.18,6v6.49c7.73,0,14.33-4.82,16.97-11.62h20.35l7.98,18.03h7.78L171.5,38.69
		L171.5,38.69z M171.38,54.61l6.98,16.01l-14.81,0L171.38,54.61L171.38,54.61z"/>
	<path d="M158.68,50.95l3.05-6.53c-5.07-3.44-11.19-5.45-17.78-5.45c-17.53,0-31.75,14.21-31.75,31.75
		c0,17.53,14.21,31.75,31.75,31.75c15.28,0,28.03-10.79,31.06-25.16h-7.29c-2.89,10.43-12.42,18.1-23.77,18.1
		c-13.63,0-24.69-11.05-24.69-24.69c0-13.63,11.05-24.69,24.69-24.69C149.48,46.03,154.57,47.87,158.68,50.95L158.68,50.95z
		 M143.94,77.3h9.62c0.19-0.28,0.39-0.57,0.56-0.87l2.68-5.82h-12.86V77.3L143.94,77.3z"/>
</g>
<g>
	<path d="M323.66,153.3c-1.8-1.93-3.6-3.86-5.41-5.77c-0.01,0.39-0.03,0.91-0.04,1.56c-0.01,0.65-0.02,1.54-0.02,2.66
		c0,0.29,0,0.65,0.01,1.08c0.01,0.43,0.01,0.88,0.02,1.35c0.01,0.47,0.02,0.95,0.03,1.43c0.01,0.49,0.03,0.94,0.04,1.35
		c0.01,0.42,0.03,0.78,0.04,1.09c0.01,0.31,0.03,0.52,0.04,0.63c-0.22-0.03-0.46-0.04-0.73-0.04c-0.28,0-0.53,0.01-0.77,0.04
		c0.03-0.14,0.06-0.4,0.09-0.77c0.03-0.38,0.07-0.82,0.09-1.34c0.03-0.52,0.06-1.08,0.09-1.69c0.03-0.61,0.06-1.22,0.08-1.83
		c0.02-0.61,0.04-1.21,0.05-1.79c0.01-0.58,0.02-1.1,0.02-1.56c0-1.33,0-2.47-0.01-3.43c-0.01-0.96-0.02-1.67-0.05-2.14h0.33
		c0.85,0.92,1.75,1.9,2.71,2.94c0.96,1.05,1.92,2.08,2.87,3.1c0.95,1.02,1.85,1.98,2.7,2.89c0.85,0.91,1.6,1.68,2.24,2.32v-2.83
		c0-1.46-0.01-2.87-0.03-4.25c-0.02-1.38-0.07-2.68-0.14-3.9c0.28,0.07,0.51,0.1,0.71,0.1c0.17,0,0.39-0.03,0.66-0.1
		c-0.03,0.31-0.06,0.76-0.09,1.37c-0.04,0.61-0.07,1.26-0.1,1.95c-0.03,0.69-0.07,1.37-0.09,2.04c-0.03,0.67-0.04,1.2-0.04,1.6v1.25
		c0,0.47,0,0.97,0.01,1.48c0.01,0.51,0.01,1.03,0.02,1.55c0.01,0.52,0.01,1.01,0.02,1.46c0.01,0.45,0.01,0.84,0.01,1.18v0.69h-0.29
		C327.16,157.12,325.46,155.23,323.66,153.3"/>
	<path d="M333.28,147.1c-0.03-0.88-0.07-1.78-0.11-2.69c0.18,0.03,0.35,0.05,0.52,0.07c0.17,0.02,0.33,0.03,0.5,0.03
		c0.17,0,0.33-0.01,0.5-0.03c0.17-0.02,0.34-0.05,0.52-0.07c-0.04,0.91-0.08,1.81-0.11,2.69c-0.03,0.88-0.05,1.78-0.05,2.69v3.58
		c0,0.92,0.02,1.82,0.05,2.7c0.04,0.89,0.07,1.76,0.11,2.62c-0.32-0.03-0.66-0.04-1.02-0.04c-0.36,0-0.7,0.01-1.02,0.04
		c0.04-0.86,0.08-1.73,0.11-2.62c0.04-0.89,0.05-1.79,0.05-2.7v-3.58C333.33,148.88,333.31,147.98,333.28,147.1"/>
	<path d="M339.16,147.07c-0.04-0.88-0.07-1.77-0.11-2.66c0.62,0.03,1.24,0.05,1.86,0.07c0.62,0.02,1.24,0.03,1.86,0.03
		c0.63,0,1.24-0.01,1.85-0.03c0.61-0.02,1.23-0.05,1.85-0.07c-0.04,0.21-0.06,0.42-0.06,0.62c0,0.21,0.02,0.42,0.06,0.63
		c-0.44-0.03-0.85-0.06-1.22-0.08c-0.37-0.03-0.76-0.06-1.16-0.09c-0.41-0.03-0.85-0.05-1.34-0.07c-0.49-0.02-1.07-0.03-1.75-0.03
		c-0.01,0.44-0.03,0.87-0.05,1.27c-0.02,0.4-0.03,0.86-0.03,1.37c0,0.54,0,1.07,0.01,1.58c0.01,0.51,0.01,0.9,0.01,1.17
		c0.61,0,1.16-0.01,1.64-0.02c0.48-0.01,0.93-0.03,1.33-0.05s0.77-0.04,1.11-0.06c0.34-0.02,0.66-0.04,0.97-0.07
		c-0.04,0.21-0.06,0.42-0.06,0.64c0,0.21,0.02,0.42,0.06,0.62c-0.36-0.04-0.78-0.07-1.26-0.1c-0.48-0.03-0.96-0.05-1.43-0.05
		c-0.48-0.01-0.93-0.02-1.35-0.02c-0.42-0.01-0.76-0.01-1.01-0.01c0,0.12,0,0.26-0.01,0.41c-0.01,0.15-0.01,0.33-0.01,0.55v0.81
		v1.25c0,0.79,0,1.44,0.01,1.95c0.01,0.51,0.02,0.9,0.03,1.16h1.46c0.53,0,1.04-0.01,1.55-0.03c0.51-0.02,0.99-0.05,1.44-0.08
		c0.45-0.04,0.84-0.09,1.18-0.16c-0.03,0.1-0.04,0.2-0.05,0.32c-0.01,0.12-0.01,0.22-0.01,0.32c0,0.22,0.02,0.4,0.06,0.54
		c-0.62-0.03-1.24-0.04-1.86-0.04h-1.88h-1.89c-0.62,0-1.25,0.01-1.89,0.04c0.04-0.89,0.08-1.77,0.11-2.65
		c0.03-0.88,0.05-1.78,0.05-2.69v-3.58C339.21,148.86,339.2,147.95,339.16,147.07"/>
	<path d="M349.67,147.1c-0.04-0.88-0.07-1.78-0.12-2.69c0.53,0.03,1.05,0.05,1.57,0.07c0.52,0.02,1.04,0.03,1.57,0.03
		c0.53,0,1.05-0.02,1.57-0.05c0.52-0.04,1.04-0.05,1.57-0.05c1.22,0,2.26,0.16,3.13,0.48c0.87,0.32,1.58,0.77,2.13,1.36
		c0.55,0.59,0.96,1.31,1.22,2.16c0.26,0.85,0.39,1.81,0.39,2.88c0,1.39-0.24,2.55-0.72,3.5c-0.48,0.95-1.09,1.71-1.83,2.3
		c-0.74,0.58-1.56,1-2.45,1.24c-0.89,0.24-1.75,0.36-2.57,0.36c-0.47,0-0.94-0.01-1.39-0.02c-0.46-0.02-0.92-0.02-1.39-0.02h-1.39
		c-0.46,0-0.92,0.01-1.39,0.04c0.04-0.86,0.08-1.73,0.12-2.62c0.03-0.88,0.05-1.79,0.05-2.7v-3.58
		C349.72,148.88,349.7,147.98,349.67,147.1 M351.55,157.78c0.29,0.07,0.69,0.12,1.18,0.16c0.5,0.04,1.01,0.05,1.54,0.05
		c0.76,0,1.53-0.09,2.29-0.27c0.76-0.18,1.45-0.52,2.05-1.02c0.6-0.5,1.1-1.18,1.48-2.05c0.38-0.86,0.57-1.99,0.57-3.36
		c0-1.21-0.15-2.2-0.45-2.97c-0.3-0.78-0.71-1.39-1.23-1.84c-0.52-0.45-1.14-0.76-1.86-0.93c-0.72-0.17-1.51-0.26-2.37-0.26
		c-0.62,0-1.21,0.02-1.75,0.06c-0.54,0.04-1.02,0.09-1.45,0.14c-0.04,0.67-0.07,1.36-0.09,2.09c-0.02,0.73-0.03,1.47-0.03,2.21v3.58
		C351.42,154.87,351.46,156.33,351.55,157.78"/>
	<path d="M365.95,147.07c-0.04-0.88-0.07-1.77-0.11-2.66c0.62,0.03,1.24,0.05,1.86,0.07c0.62,0.02,1.24,0.03,1.86,0.03
		c0.62,0,1.24-0.01,1.85-0.03c0.61-0.02,1.23-0.05,1.85-0.07c-0.04,0.21-0.06,0.42-0.06,0.62c0,0.21,0.02,0.42,0.06,0.63
		c-0.45-0.03-0.85-0.06-1.22-0.08c-0.37-0.03-0.75-0.06-1.16-0.09c-0.41-0.03-0.85-0.05-1.34-0.07c-0.49-0.02-1.07-0.03-1.75-0.03
		c-0.01,0.44-0.03,0.87-0.05,1.27c-0.02,0.4-0.03,0.86-0.03,1.37c0,0.54,0,1.07,0.01,1.58c0.01,0.51,0.01,0.9,0.01,1.17
		c0.61,0,1.16-0.01,1.64-0.02c0.48-0.01,0.93-0.03,1.33-0.05c0.4-0.02,0.77-0.04,1.11-0.06c0.34-0.02,0.66-0.04,0.97-0.07
		c-0.04,0.21-0.06,0.42-0.06,0.64c0,0.21,0.02,0.42,0.06,0.62c-0.36-0.04-0.78-0.07-1.26-0.1c-0.48-0.03-0.96-0.05-1.44-0.05
		c-0.48-0.01-0.93-0.02-1.35-0.02c-0.42-0.01-0.76-0.01-1.01-0.01c0,0.12,0,0.26-0.01,0.41c-0.01,0.15-0.01,0.33-0.01,0.55v0.81
		v1.25c0,0.79,0,1.44,0.01,1.95c0.01,0.51,0.02,0.9,0.03,1.16h1.46c0.53,0,1.04-0.01,1.55-0.03c0.5-0.02,0.98-0.05,1.43-0.08
		c0.45-0.04,0.84-0.09,1.17-0.16c-0.03,0.1-0.04,0.2-0.05,0.32c-0.01,0.12-0.01,0.22-0.01,0.32c0,0.22,0.02,0.4,0.06,0.54
		c-0.62-0.03-1.24-0.04-1.86-0.04h-1.88h-1.89c-0.62,0-1.26,0.01-1.89,0.04c0.04-0.89,0.08-1.77,0.11-2.65
		c0.03-0.88,0.05-1.78,0.05-2.69v-3.58C366,148.86,365.98,147.95,365.95,147.07"/>
	<path d="M376.45,147.1c-0.04-0.88-0.07-1.78-0.12-2.69c0.4,0.03,0.8,0.05,1.19,0.07c0.39,0.02,0.78,0.03,1.18,0.03
		c0.4,0,0.8-0.02,1.18-0.05c0.39-0.04,0.78-0.05,1.19-0.05c0.58,0,1.14,0.06,1.66,0.17c0.53,0.11,0.99,0.3,1.38,0.55
		c0.39,0.26,0.71,0.59,0.93,1.01c0.23,0.41,0.35,0.93,0.35,1.56c0,0.67-0.15,1.24-0.45,1.72c-0.3,0.48-0.66,0.87-1.09,1.19
		c-0.43,0.31-0.89,0.55-1.38,0.73c-0.49,0.17-0.94,0.29-1.34,0.34c0.17,0.21,0.4,0.5,0.69,0.87c0.29,0.37,0.62,0.79,0.98,1.24
		c0.36,0.45,0.74,0.92,1.12,1.41c0.39,0.49,0.76,0.96,1.12,1.41c0.36,0.45,0.7,0.86,1.02,1.24c0.32,0.37,0.57,0.66,0.77,0.85
		c-0.21-0.03-0.42-0.04-0.62-0.04h-0.62h-0.6c-0.21,0-0.41,0.01-0.6,0.04c-0.21-0.29-0.52-0.73-0.95-1.31
		c-0.42-0.58-0.89-1.21-1.4-1.87c-0.51-0.67-1.04-1.33-1.57-1.99c-0.53-0.66-1.02-1.22-1.47-1.67h-0.79v1.52
		c0,0.92,0.02,1.82,0.05,2.7c0.03,0.89,0.07,1.76,0.11,2.62c-0.32-0.03-0.66-0.04-1.02-0.04c-0.36,0-0.7,0.01-1.02,0.04
		c0.04-0.86,0.08-1.73,0.12-2.62c0.03-0.88,0.05-1.79,0.05-2.7v-3.58C376.5,148.88,376.48,147.98,376.45,147.1 M378.84,151.06
		c0.23,0.01,0.48,0.02,0.76,0.02c0.43,0,0.88-0.05,1.34-0.15c0.46-0.1,0.89-0.27,1.28-0.51c0.39-0.24,0.71-0.57,0.97-0.98
		c0.26-0.41,0.38-0.93,0.38-1.55c0-0.54-0.1-0.99-0.3-1.34c-0.2-0.35-0.46-0.64-0.78-0.84c-0.32-0.21-0.66-0.35-1.04-0.43
		c-0.37-0.08-0.74-0.11-1.1-0.11c-0.49,0-0.89,0.01-1.21,0.03c-0.32,0.02-0.59,0.04-0.81,0.07c-0.03,0.76-0.06,1.52-0.08,2.27
		c-0.03,0.75-0.04,1.5-0.04,2.25v1.19C378.4,151.02,378.61,151.05,378.84,151.06"/>
	<path d="M389.3,156.75c0.19,0.26,0.42,0.49,0.68,0.7c0.27,0.21,0.59,0.38,0.95,0.51c0.36,0.13,0.76,0.2,1.21,0.2
		c0.46,0,0.87-0.08,1.24-0.24c0.37-0.16,0.68-0.37,0.93-0.65c0.26-0.27,0.45-0.59,0.59-0.95c0.14-0.37,0.21-0.76,0.21-1.18
		c0-0.64-0.16-1.14-0.49-1.52c-0.32-0.37-0.73-0.69-1.21-0.93c-0.49-0.25-1.01-0.48-1.57-0.69c-0.56-0.21-1.09-0.47-1.57-0.78
		c-0.49-0.31-0.89-0.71-1.22-1.2c-0.32-0.48-0.49-1.13-0.49-1.95c0-0.58,0.1-1.11,0.31-1.59c0.21-0.48,0.51-0.89,0.9-1.24
		c0.39-0.35,0.87-0.62,1.42-0.81c0.56-0.19,1.18-0.29,1.87-0.29c0.67,0,1.24,0.08,1.73,0.24c0.49,0.16,0.94,0.4,1.35,0.74
		c-0.13,0.23-0.23,0.49-0.31,0.75c-0.08,0.27-0.17,0.6-0.25,1h-0.25c-0.07-0.2-0.16-0.41-0.28-0.64s-0.28-0.44-0.48-0.63
		c-0.2-0.19-0.44-0.36-0.72-0.49c-0.28-0.13-0.61-0.2-1-0.2c-0.39,0-0.75,0.06-1.07,0.19c-0.33,0.13-0.61,0.3-0.85,0.53
		c-0.24,0.23-0.43,0.5-0.56,0.82c-0.13,0.32-0.2,0.67-0.2,1.04c0,0.65,0.16,1.17,0.49,1.54c0.32,0.37,0.73,0.69,1.22,0.95
		c0.48,0.26,1.01,0.49,1.57,0.69c0.56,0.2,1.08,0.45,1.57,0.74c0.48,0.29,0.89,0.66,1.22,1.12c0.32,0.46,0.49,1.07,0.49,1.83
		c0,0.64-0.12,1.24-0.34,1.81c-0.23,0.57-0.56,1.06-1,1.49c-0.44,0.42-0.97,0.75-1.6,0.98c-0.63,0.23-1.35,0.34-2.15,0.34
		c-0.86,0-1.56-0.11-2.09-0.34c-0.53-0.23-0.98-0.49-1.34-0.78c0.12-0.32,0.21-0.61,0.26-0.86c0.05-0.25,0.09-0.58,0.13-0.99h0.25
		C388.96,156.24,389.11,156.49,389.3,156.75"/>
	<path d="M406.11,146.75c0.39,0.93,0.78,1.88,1.19,2.84c0.4,0.95,0.8,1.9,1.21,2.85c0.4,0.94,0.78,1.82,1.13,2.63
		c0.35,0.81,0.67,1.53,0.96,2.17c0.28,0.63,0.52,1.12,0.7,1.45c-0.19-0.03-0.38-0.04-0.55-0.04h-0.55h-0.55
		c-0.17,0-0.36,0.01-0.55,0.04c-0.1-0.32-0.23-0.7-0.4-1.15c-0.17-0.45-0.35-0.92-0.55-1.41c-0.2-0.49-0.41-0.99-0.61-1.5
		c-0.21-0.51-0.4-0.99-0.58-1.45c-0.44-0.01-0.89-0.02-1.35-0.03c-0.46-0.01-0.91-0.01-1.37-0.01c-0.43,0-0.85,0.01-1.27,0.01
		c-0.42,0.01-0.84,0.02-1.27,0.03c-0.45,1.08-0.85,2.11-1.21,3.09c-0.36,0.98-0.63,1.78-0.81,2.42c-0.24-0.03-0.49-0.04-0.77-0.04
		s-0.54,0.01-0.77,0.04c1.12-2.43,2.22-4.84,3.28-7.24c1.07-2.4,2.14-4.84,3.22-7.32h0.39
		C405.36,144.94,405.72,145.81,406.11,146.75 M401.91,141.08c0.21-0.21,0.46-0.31,0.75-0.31c0.29,0,0.54,0.1,0.75,0.31
		c0.21,0.21,0.31,0.46,0.31,0.75c0,0.29-0.1,0.54-0.31,0.75c-0.21,0.21-0.46,0.31-0.75,0.31c-0.29,0-0.54-0.11-0.75-0.31
		c-0.21-0.21-0.31-0.46-0.31-0.75C401.6,141.54,401.7,141.29,401.91,141.08 M402.08,152.23c0.36,0,0.73,0.01,1.12,0.02
		c0.39,0.02,0.76,0.02,1.12,0.02c0.39,0,0.77,0,1.16-0.01c0.39-0.01,0.78-0.02,1.16-0.03l-2.31-5.28L402.08,152.23L402.08,152.23z
		 M406,141.08c0.21-0.21,0.46-0.31,0.75-0.31c0.29,0,0.54,0.1,0.75,0.31c0.21,0.21,0.31,0.46,0.31,0.75c0,0.29-0.11,0.54-0.31,0.75
		c-0.21,0.21-0.46,0.31-0.75,0.31c-0.29,0-0.54-0.11-0.75-0.31c-0.21-0.21-0.31-0.46-0.31-0.75
		C405.69,141.54,405.8,141.29,406,141.08"/>
	<path d="M423.94,158.2c-0.27,0.13-0.6,0.25-0.98,0.35c-0.38,0.1-0.81,0.2-1.28,0.28c-0.47,0.08-0.96,0.12-1.48,0.12
		c-1.1,0-2.11-0.16-3.04-0.47c-0.93-0.31-1.73-0.79-2.4-1.43c-0.67-0.64-1.2-1.42-1.58-2.34c-0.38-0.92-0.57-1.97-0.57-3.15
		c0-1.18,0.19-2.23,0.57-3.15c0.38-0.92,0.92-1.7,1.6-2.34c0.69-0.64,1.51-1.12,2.47-1.45c0.96-0.33,2.01-0.5,3.16-0.5
		c0.91,0,1.75,0.09,2.5,0.28c0.76,0.19,1.42,0.41,2.01,0.68c-0.11,0.2-0.2,0.46-0.27,0.79c-0.07,0.33-0.13,0.61-0.16,0.83
		l-0.13,0.04c-0.14-0.17-0.33-0.35-0.58-0.56c-0.25-0.21-0.54-0.41-0.87-0.6c-0.33-0.19-0.71-0.36-1.12-0.49
		c-0.42-0.13-0.87-0.2-1.37-0.2c-0.82,0-1.58,0.13-2.28,0.4c-0.7,0.26-1.31,0.67-1.83,1.21c-0.52,0.55-0.93,1.24-1.22,2.08
		c-0.29,0.84-0.44,1.83-0.44,2.98c0,1.15,0.15,2.15,0.44,2.98c0.29,0.84,0.7,1.53,1.22,2.08c0.52,0.55,1.13,0.95,1.83,1.22
		c0.7,0.26,1.46,0.39,2.28,0.39c0.5,0,0.96-0.06,1.38-0.19c0.42-0.12,0.81-0.27,1.16-0.45c0.35-0.17,0.67-0.36,0.96-0.56
		c0.28-0.2,0.52-0.38,0.72-0.53l0.08,0.08l-0.19,1.23C424.41,157.95,424.21,158.07,423.94,158.2"/>
	<path d="M438.1,147.1c-0.04-0.88-0.07-1.78-0.11-2.69c0.18,0.03,0.35,0.05,0.52,0.07c0.17,0.02,0.33,0.03,0.5,0.03
		c0.17,0,0.33-0.01,0.5-0.03c0.17-0.02,0.34-0.05,0.52-0.07c-0.04,0.91-0.08,1.81-0.11,2.69c-0.03,0.88-0.05,1.78-0.05,2.69v3.58
		c0,0.92,0.02,1.82,0.05,2.7c0.04,0.89,0.07,1.76,0.11,2.62c-0.32-0.03-0.66-0.04-1.02-0.04s-0.7,0.01-1.02,0.04
		c0.04-0.86,0.08-1.73,0.11-2.62c0.03-0.89,0.05-1.79,0.05-2.7v-1.87c-0.75-0.01-1.47-0.02-2.17-0.03c-0.7-0.01-1.42-0.01-2.17-0.01
		c-0.75,0-1.47,0-2.17,0.01c-0.7,0.01-1.43,0.02-2.17,0.03v1.87c0,0.92,0.02,1.82,0.05,2.7c0.04,0.89,0.07,1.76,0.11,2.62
		c-0.32-0.03-0.66-0.04-1.02-0.04c-0.36,0-0.7,0.01-1.02,0.04c0.04-0.86,0.08-1.73,0.11-2.62c0.03-0.89,0.05-1.79,0.05-2.7v-3.58
		c0-0.91-0.02-1.81-0.05-2.69c-0.04-0.88-0.07-1.78-0.11-2.69c0.18,0.03,0.35,0.05,0.52,0.07c0.17,0.02,0.33,0.03,0.5,0.03
		c0.17,0,0.33-0.01,0.5-0.03c0.17-0.02,0.34-0.05,0.52-0.07c-0.04,0.91-0.08,1.81-0.11,2.69c-0.03,0.88-0.05,1.78-0.05,2.69v0.73
		c0.75,0.01,1.47,0.03,2.17,0.04c0.7,0.01,1.42,0.02,2.17,0.02c0.75,0,1.47-0.01,2.17-0.02c0.7-0.01,1.43-0.03,2.17-0.04v-0.73
		C438.15,148.88,438.13,147.98,438.1,147.1"/>
	<path d="M444.03,156.75c0.19,0.26,0.41,0.49,0.68,0.7c0.27,0.21,0.59,0.38,0.95,0.51c0.36,0.13,0.76,0.2,1.21,0.2
		c0.46,0,0.87-0.08,1.24-0.24c0.37-0.16,0.68-0.37,0.93-0.65c0.26-0.27,0.46-0.59,0.59-0.95c0.14-0.37,0.21-0.76,0.21-1.18
		c0-0.64-0.16-1.14-0.49-1.52c-0.32-0.37-0.73-0.69-1.21-0.93c-0.49-0.25-1.01-0.48-1.57-0.69c-0.56-0.21-1.08-0.47-1.57-0.78
		c-0.49-0.31-0.89-0.71-1.22-1.2c-0.33-0.48-0.49-1.13-0.49-1.95c0-0.58,0.1-1.11,0.31-1.59c0.21-0.48,0.51-0.89,0.91-1.24
		c0.39-0.35,0.87-0.62,1.42-0.81c0.55-0.19,1.18-0.29,1.87-0.29c0.67,0,1.24,0.08,1.72,0.24c0.49,0.16,0.94,0.4,1.35,0.74
		c-0.12,0.23-0.23,0.49-0.31,0.75c-0.08,0.27-0.17,0.6-0.25,1h-0.25c-0.07-0.2-0.16-0.41-0.28-0.64c-0.12-0.23-0.28-0.44-0.48-0.63
		c-0.2-0.19-0.44-0.36-0.72-0.49c-0.28-0.13-0.61-0.2-1-0.2c-0.39,0-0.75,0.06-1.07,0.19c-0.32,0.13-0.61,0.3-0.85,0.53
		c-0.24,0.23-0.43,0.5-0.56,0.82c-0.13,0.32-0.2,0.67-0.2,1.04c0,0.65,0.16,1.17,0.49,1.54c0.32,0.37,0.73,0.69,1.22,0.95
		c0.49,0.26,1.01,0.49,1.57,0.69c0.56,0.2,1.08,0.45,1.57,0.74c0.48,0.29,0.89,0.66,1.21,1.12c0.33,0.46,0.49,1.07,0.49,1.83
		c0,0.64-0.11,1.24-0.34,1.81c-0.23,0.57-0.56,1.06-1,1.49c-0.44,0.42-0.97,0.75-1.6,0.98c-0.63,0.23-1.35,0.34-2.15,0.34
		c-0.86,0-1.56-0.11-2.09-0.34c-0.53-0.23-0.98-0.49-1.34-0.78c0.13-0.32,0.21-0.61,0.26-0.86c0.05-0.25,0.09-0.58,0.13-0.99h0.25
		C443.69,156.24,443.84,156.49,444.03,156.75"/>
	<path d="M454.48,147.1c-0.04-0.88-0.07-1.78-0.11-2.69c0.18,0.03,0.35,0.05,0.52,0.07c0.17,0.02,0.33,0.03,0.5,0.03
		c0.17,0,0.33-0.01,0.5-0.03c0.17-0.02,0.34-0.05,0.52-0.07c-0.04,0.91-0.08,1.81-0.11,2.69c-0.03,0.88-0.05,1.78-0.05,2.69v3.58
		c0,0.92,0.02,1.82,0.05,2.7c0.03,0.89,0.07,1.76,0.11,2.62c-0.32-0.03-0.66-0.04-1.02-0.04c-0.36,0-0.7,0.01-1.02,0.04
		c0.04-0.86,0.08-1.73,0.11-2.62c0.03-0.89,0.05-1.79,0.05-2.7v-3.58C454.54,148.88,454.52,147.98,454.48,147.1"/>
	<path d="M460.41,156.75c0.19,0.26,0.41,0.49,0.68,0.7c0.27,0.21,0.59,0.38,0.95,0.51c0.36,0.13,0.76,0.2,1.21,0.2
		c0.46,0,0.87-0.08,1.24-0.24c0.37-0.16,0.68-0.37,0.93-0.65c0.26-0.27,0.46-0.59,0.59-0.95c0.14-0.37,0.21-0.76,0.21-1.18
		c0-0.64-0.16-1.14-0.49-1.52c-0.32-0.37-0.73-0.69-1.21-0.93c-0.49-0.25-1.01-0.48-1.57-0.69c-0.56-0.21-1.08-0.47-1.57-0.78
		c-0.49-0.31-0.89-0.71-1.22-1.2c-0.33-0.48-0.49-1.13-0.49-1.95c0-0.58,0.1-1.11,0.31-1.59c0.21-0.48,0.51-0.89,0.91-1.24
		c0.39-0.35,0.87-0.62,1.42-0.81c0.55-0.19,1.18-0.29,1.87-0.29c0.67,0,1.24,0.08,1.73,0.24c0.49,0.16,0.93,0.4,1.35,0.74
		c-0.12,0.23-0.23,0.49-0.31,0.75c-0.08,0.27-0.17,0.6-0.25,1h-0.25c-0.07-0.2-0.16-0.41-0.28-0.64c-0.12-0.23-0.28-0.44-0.48-0.63
		c-0.2-0.19-0.44-0.36-0.72-0.49c-0.28-0.13-0.61-0.2-1-0.2c-0.39,0-0.74,0.06-1.07,0.19c-0.32,0.13-0.61,0.3-0.85,0.53
		c-0.24,0.23-0.43,0.5-0.56,0.82c-0.13,0.32-0.2,0.67-0.2,1.04c0,0.65,0.16,1.17,0.49,1.54c0.33,0.37,0.73,0.69,1.22,0.95
		c0.49,0.26,1.01,0.49,1.57,0.69c0.56,0.2,1.08,0.45,1.57,0.74c0.48,0.29,0.89,0.66,1.21,1.12c0.33,0.46,0.49,1.07,0.49,1.83
		c0,0.64-0.11,1.24-0.34,1.81c-0.23,0.57-0.56,1.06-1,1.49c-0.44,0.42-0.97,0.75-1.6,0.98c-0.63,0.23-1.35,0.34-2.15,0.34
		c-0.86,0-1.56-0.11-2.09-0.34c-0.53-0.23-0.98-0.49-1.34-0.78c0.13-0.32,0.21-0.61,0.26-0.86c0.05-0.25,0.09-0.58,0.13-0.99h0.25
		C460.08,156.24,460.22,156.49,460.41,156.75"/>
	<path d="M481.08,158.2c-0.27,0.13-0.6,0.25-0.98,0.35c-0.38,0.1-0.81,0.2-1.28,0.28c-0.47,0.08-0.96,0.12-1.48,0.12
		c-1.09,0-2.11-0.16-3.03-0.47c-0.93-0.31-1.73-0.79-2.4-1.43c-0.67-0.64-1.2-1.42-1.58-2.34c-0.38-0.92-0.57-1.97-0.57-3.15
		c0-1.18,0.19-2.23,0.57-3.15c0.38-0.92,0.91-1.7,1.6-2.34c0.69-0.64,1.51-1.12,2.46-1.45c0.96-0.33,2.01-0.5,3.16-0.5
		c0.92,0,1.75,0.09,2.51,0.28c0.76,0.19,1.43,0.41,2.01,0.68c-0.11,0.2-0.2,0.46-0.27,0.79c-0.07,0.33-0.12,0.61-0.17,0.83
		l-0.13,0.04c-0.14-0.17-0.33-0.35-0.58-0.56c-0.25-0.21-0.54-0.41-0.87-0.6c-0.33-0.19-0.71-0.36-1.12-0.49
		c-0.42-0.13-0.87-0.2-1.37-0.2c-0.82,0-1.57,0.13-2.28,0.4c-0.7,0.26-1.31,0.67-1.83,1.21c-0.52,0.55-0.93,1.24-1.22,2.08
		c-0.29,0.84-0.43,1.83-0.43,2.98c0,1.15,0.14,2.15,0.43,2.98c0.29,0.84,0.7,1.53,1.22,2.08c0.52,0.55,1.13,0.95,1.83,1.22
		c0.7,0.26,1.46,0.39,2.28,0.39c0.5,0,0.96-0.06,1.38-0.19c0.42-0.12,0.81-0.27,1.16-0.45c0.35-0.17,0.67-0.36,0.96-0.56
		c0.29-0.2,0.52-0.38,0.72-0.53l0.08,0.08l-0.19,1.23C481.55,157.95,481.35,158.07,481.08,158.2"/>
	<path d="M495.24,147.1c-0.04-0.88-0.07-1.78-0.11-2.69c0.18,0.03,0.35,0.05,0.52,0.07c0.17,0.02,0.33,0.03,0.5,0.03
		c0.17,0,0.33-0.01,0.5-0.03c0.17-0.02,0.34-0.05,0.52-0.07c-0.04,0.91-0.08,1.81-0.11,2.69c-0.03,0.88-0.05,1.78-0.05,2.69v3.58
		c0,0.92,0.02,1.82,0.05,2.7c0.04,0.89,0.07,1.76,0.11,2.62c-0.32-0.03-0.66-0.04-1.02-0.04c-0.36,0-0.7,0.01-1.02,0.04
		c0.04-0.86,0.08-1.73,0.11-2.62c0.03-0.89,0.05-1.79,0.05-2.7v-1.87c-0.75-0.01-1.47-0.02-2.17-0.03c-0.7-0.01-1.42-0.01-2.18-0.01
		c-0.75,0-1.47,0-2.17,0.01c-0.7,0.01-1.42,0.02-2.17,0.03v1.87c0,0.92,0.02,1.82,0.05,2.7c0.03,0.89,0.07,1.76,0.12,2.62
		c-0.32-0.03-0.66-0.04-1.02-0.04c-0.36,0-0.7,0.01-1.02,0.04c0.04-0.86,0.08-1.73,0.12-2.62c0.03-0.89,0.05-1.79,0.05-2.7v-3.58
		c0-0.91-0.02-1.81-0.05-2.69c-0.04-0.88-0.07-1.78-0.12-2.69c0.18,0.03,0.35,0.05,0.52,0.07c0.17,0.02,0.33,0.03,0.5,0.03
		c0.17,0,0.33-0.01,0.5-0.03c0.17-0.02,0.34-0.05,0.52-0.07c-0.04,0.91-0.08,1.81-0.12,2.69c-0.04,0.88-0.05,1.78-0.05,2.69v0.73
		c0.75,0.01,1.47,0.03,2.17,0.04c0.7,0.01,1.42,0.02,2.17,0.02c0.75,0,1.47-0.01,2.18-0.02c0.7-0.01,1.42-0.03,2.17-0.04v-0.73
		C495.29,148.88,495.28,147.98,495.24,147.1"/>
	<path d="M501.13,147.07c-0.04-0.88-0.07-1.77-0.12-2.66c0.63,0.03,1.24,0.05,1.86,0.07c0.62,0.02,1.24,0.03,1.86,0.03
		s1.24-0.01,1.85-0.03c0.61-0.02,1.23-0.05,1.85-0.07c-0.04,0.21-0.06,0.42-0.06,0.62c0,0.21,0.02,0.42,0.06,0.63
		c-0.44-0.03-0.85-0.06-1.22-0.08c-0.37-0.03-0.75-0.06-1.16-0.09c-0.41-0.03-0.86-0.05-1.34-0.07c-0.49-0.02-1.07-0.03-1.75-0.03
		c-0.01,0.44-0.03,0.87-0.05,1.27c-0.02,0.4-0.03,0.86-0.03,1.37c0,0.54,0,1.07,0.01,1.58c0.01,0.51,0.01,0.9,0.01,1.17
		c0.61,0,1.16-0.01,1.64-0.02c0.49-0.01,0.93-0.03,1.33-0.05c0.4-0.02,0.77-0.04,1.11-0.06c0.34-0.02,0.66-0.04,0.97-0.07
		c-0.04,0.21-0.06,0.42-0.06,0.64c0,0.21,0.02,0.42,0.06,0.62c-0.36-0.04-0.78-0.07-1.26-0.1c-0.48-0.03-0.96-0.05-1.43-0.05
		c-0.48-0.01-0.93-0.02-1.35-0.02c-0.42-0.01-0.76-0.01-1.01-0.01c0,0.12,0,0.26-0.01,0.41c-0.01,0.15-0.01,0.33-0.01,0.55v0.81
		v1.25c0,0.79,0,1.44,0.01,1.95c0.01,0.51,0.02,0.9,0.03,1.16h1.46c0.53,0,1.04-0.01,1.55-0.03c0.5-0.02,0.98-0.05,1.43-0.08
		c0.45-0.04,0.84-0.09,1.18-0.16c-0.03,0.1-0.05,0.2-0.05,0.32c-0.01,0.12-0.01,0.22-0.01,0.32c0,0.22,0.02,0.4,0.06,0.54
		c-0.62-0.03-1.24-0.04-1.86-0.04h-1.88h-1.89c-0.62,0-1.25,0.01-1.89,0.04c0.04-0.89,0.08-1.77,0.12-2.65
		c0.04-0.88,0.05-1.78,0.05-2.69v-3.58C501.18,148.86,501.16,147.95,501.13,147.07"/>
	<path d="M517.55,156.75c0.19,0.26,0.42,0.49,0.69,0.7c0.27,0.21,0.58,0.38,0.95,0.51c0.36,0.13,0.76,0.2,1.21,0.2
		c0.46,0,0.87-0.08,1.24-0.24c0.37-0.16,0.68-0.37,0.93-0.65c0.26-0.27,0.45-0.59,0.59-0.95c0.14-0.37,0.21-0.76,0.21-1.18
		c0-0.64-0.16-1.14-0.49-1.52c-0.33-0.37-0.73-0.69-1.21-0.93c-0.49-0.25-1.01-0.48-1.57-0.69c-0.56-0.21-1.09-0.47-1.57-0.78
		c-0.48-0.31-0.89-0.71-1.22-1.2c-0.32-0.48-0.49-1.13-0.49-1.95c0-0.58,0.1-1.11,0.31-1.59c0.21-0.48,0.51-0.89,0.9-1.24
		c0.39-0.35,0.87-0.62,1.42-0.81c0.56-0.19,1.18-0.29,1.87-0.29c0.67,0,1.24,0.08,1.73,0.24c0.49,0.16,0.93,0.4,1.35,0.74
		c-0.12,0.23-0.23,0.49-0.31,0.75c-0.08,0.27-0.17,0.6-0.25,1h-0.25c-0.07-0.2-0.16-0.41-0.28-0.64s-0.28-0.44-0.48-0.63
		c-0.2-0.19-0.44-0.36-0.72-0.49c-0.28-0.13-0.61-0.2-1-0.2c-0.39,0-0.74,0.06-1.07,0.19c-0.33,0.13-0.61,0.3-0.85,0.53
		c-0.24,0.23-0.43,0.5-0.56,0.82c-0.13,0.32-0.2,0.67-0.2,1.04c0,0.65,0.16,1.17,0.49,1.54c0.32,0.37,0.73,0.69,1.21,0.95
		c0.48,0.26,1.01,0.49,1.57,0.69c0.56,0.2,1.08,0.45,1.57,0.74c0.49,0.29,0.89,0.66,1.22,1.12c0.33,0.46,0.49,1.07,0.49,1.83
		c0,0.64-0.11,1.24-0.34,1.81c-0.23,0.57-0.56,1.06-1,1.49c-0.44,0.42-0.97,0.75-1.6,0.98c-0.63,0.23-1.35,0.34-2.15,0.34
		c-0.86,0-1.56-0.11-2.09-0.34c-0.53-0.23-0.98-0.49-1.34-0.78c0.13-0.32,0.21-0.61,0.26-0.86c0.05-0.25,0.09-0.58,0.13-0.99h0.25
		C517.22,156.24,517.37,156.49,517.55,156.75"/>
	<path d="M530.89,145.49c-0.36,0-0.74,0-1.13,0.01c-0.4,0.01-0.79,0.02-1.19,0.04c-0.39,0.02-0.78,0.04-1.14,0.07
		c-0.37,0.03-0.7,0.06-0.99,0.11c0.07-0.25,0.1-0.47,0.1-0.67c0-0.15-0.04-0.37-0.1-0.65c0.91,0.03,1.81,0.05,2.68,0.07
		c0.87,0.02,1.77,0.03,2.68,0.03c0.92,0,1.81-0.01,2.68-0.03c0.88-0.02,1.77-0.05,2.68-0.07c-0.07,0.28-0.1,0.5-0.1,0.66
		c0,0.18,0.04,0.4,0.1,0.65c-0.29-0.04-0.62-0.08-0.99-0.11c-0.37-0.03-0.75-0.05-1.14-0.07c-0.4-0.02-0.79-0.04-1.19-0.04
		c-0.39-0.01-0.77-0.01-1.13-0.01c-0.04,1.43-0.06,2.86-0.06,4.3v3.58c0,0.92,0.02,1.82,0.05,2.7c0.04,0.89,0.07,1.76,0.12,2.62
		c-0.32-0.03-0.66-0.04-1.02-0.04c-0.36,0-0.7,0.01-1.02,0.04c0.04-0.86,0.08-1.73,0.11-2.62c0.03-0.88,0.05-1.79,0.05-2.7v-3.58
		C530.96,148.35,530.93,146.92,530.89,145.49"/>
	<path d="M549.67,158.69c-0.2-0.03-0.38-0.04-0.55-0.04h-0.55h-0.55c-0.17,0-0.36,0.01-0.55,0.04c-0.1-0.32-0.23-0.7-0.4-1.15
		c-0.17-0.45-0.35-0.92-0.55-1.41c-0.2-0.49-0.4-0.99-0.61-1.5c-0.21-0.51-0.4-0.99-0.58-1.44c-0.44-0.01-0.89-0.02-1.35-0.03
		c-0.46-0.01-0.91-0.01-1.37-0.01c-0.43,0-0.85,0.01-1.27,0.01c-0.42,0.01-0.84,0.02-1.27,0.03c-0.44,1.08-0.85,2.11-1.21,3.09
		c-0.36,0.98-0.63,1.78-0.81,2.42c-0.24-0.03-0.49-0.04-0.77-0.04c-0.28,0-0.53,0.01-0.77,0.04c1.12-2.43,2.22-4.84,3.28-7.24
		c1.07-2.4,2.14-4.84,3.22-7.32h0.4c0.33,0.81,0.69,1.67,1.08,2.61c0.39,0.93,0.78,1.88,1.18,2.84c0.4,0.96,0.8,1.9,1.21,2.85
		c0.4,0.94,0.78,1.82,1.13,2.63c0.35,0.81,0.67,1.54,0.95,2.17C549.26,157.87,549.49,158.36,549.67,158.69 M540.46,152.23
		c0.36,0,0.73,0.01,1.12,0.02c0.39,0.01,0.76,0.02,1.12,0.02c0.39,0,0.78,0,1.16-0.01c0.39-0.01,0.78-0.02,1.16-0.03l-2.31-5.28
		L540.46,152.23L540.46,152.23z"/>
	<path d="M563.64,158.69c-0.19-0.03-0.38-0.04-0.55-0.04h-0.55h-0.55c-0.17,0-0.36,0.01-0.55,0.04c-0.1-0.32-0.23-0.7-0.4-1.15
		c-0.17-0.45-0.35-0.92-0.55-1.41c-0.2-0.49-0.4-0.99-0.61-1.5c-0.21-0.51-0.4-0.99-0.58-1.44c-0.44-0.01-0.89-0.02-1.35-0.03
		c-0.46-0.01-0.92-0.01-1.37-0.01c-0.43,0-0.85,0.01-1.27,0.01c-0.41,0.01-0.84,0.02-1.27,0.03c-0.44,1.08-0.85,2.11-1.21,3.09
		c-0.36,0.98-0.63,1.78-0.81,2.42c-0.24-0.03-0.49-0.04-0.77-0.04c-0.28,0-0.53,0.01-0.77,0.04c1.12-2.43,2.22-4.84,3.28-7.24
		c1.07-2.4,2.14-4.84,3.22-7.32h0.4c0.33,0.81,0.69,1.67,1.08,2.61c0.39,0.93,0.79,1.88,1.19,2.84c0.4,0.96,0.8,1.9,1.21,2.85
		c0.4,0.94,0.78,1.82,1.13,2.63c0.35,0.81,0.67,1.54,0.96,2.17C563.23,157.87,563.46,158.36,563.64,158.69 M554.43,152.23
		c0.36,0,0.74,0.01,1.12,0.02c0.39,0.01,0.76,0.02,1.12,0.02c0.39,0,0.78,0,1.16-0.01c0.39-0.01,0.78-0.02,1.17-0.03l-2.31-5.28
		L554.43,152.23L554.43,152.23z"/>
	<path d="M567.43,145.49c-0.36,0-0.74,0-1.14,0.01c-0.4,0.01-0.79,0.02-1.18,0.04c-0.39,0.02-0.78,0.04-1.15,0.07
		c-0.37,0.03-0.7,0.06-0.99,0.11c0.07-0.25,0.1-0.47,0.1-0.67c0-0.15-0.04-0.37-0.1-0.65c0.91,0.03,1.81,0.05,2.68,0.07
		c0.87,0.02,1.77,0.03,2.68,0.03c0.92,0,1.81-0.01,2.68-0.03c0.87-0.02,1.77-0.05,2.68-0.07c-0.07,0.28-0.1,0.5-0.1,0.66
		c0,0.18,0.03,0.4,0.1,0.65c-0.29-0.04-0.62-0.08-0.99-0.11c-0.37-0.03-0.75-0.05-1.14-0.07c-0.39-0.02-0.79-0.04-1.19-0.04
		c-0.39-0.01-0.77-0.01-1.13-0.01c-0.04,1.43-0.07,2.86-0.07,4.3v3.58c0,0.92,0.02,1.82,0.05,2.7c0.03,0.89,0.07,1.76,0.11,2.62
		c-0.32-0.03-0.66-0.04-1.02-0.04c-0.36,0-0.7,0.01-1.02,0.04c0.04-0.86,0.08-1.73,0.11-2.62c0.04-0.88,0.05-1.79,0.05-2.7v-3.58
		C567.49,148.35,567.47,146.92,567.43,145.49"/>
	<path d="M576.25,156.75c0.19,0.26,0.42,0.49,0.69,0.7c0.27,0.21,0.58,0.38,0.95,0.51c0.36,0.13,0.76,0.2,1.2,0.2
		c0.46,0,0.87-0.08,1.24-0.24c0.37-0.16,0.68-0.37,0.94-0.65c0.26-0.27,0.46-0.59,0.59-0.95c0.14-0.37,0.21-0.76,0.21-1.18
		c0-0.64-0.16-1.14-0.49-1.52c-0.33-0.37-0.73-0.69-1.22-0.93c-0.49-0.25-1.01-0.48-1.57-0.69c-0.56-0.21-1.08-0.47-1.57-0.78
		c-0.48-0.31-0.89-0.71-1.21-1.2c-0.33-0.48-0.49-1.13-0.49-1.95c0-0.58,0.1-1.11,0.31-1.59c0.21-0.48,0.51-0.89,0.9-1.24
		c0.39-0.35,0.87-0.62,1.43-0.81c0.55-0.19,1.18-0.29,1.87-0.29c0.66,0,1.24,0.08,1.72,0.24c0.49,0.16,0.94,0.4,1.35,0.74
		c-0.13,0.23-0.23,0.49-0.31,0.75c-0.08,0.27-0.17,0.6-0.25,1h-0.25c-0.07-0.2-0.16-0.41-0.28-0.64c-0.12-0.23-0.28-0.44-0.48-0.63
		c-0.2-0.19-0.44-0.36-0.72-0.49c-0.28-0.13-0.61-0.2-1-0.2c-0.39,0-0.75,0.06-1.07,0.19c-0.33,0.13-0.61,0.3-0.85,0.53
		c-0.24,0.23-0.43,0.5-0.56,0.82c-0.13,0.32-0.2,0.67-0.2,1.04c0,0.65,0.16,1.17,0.49,1.54c0.32,0.37,0.73,0.69,1.22,0.95
		c0.48,0.26,1.01,0.49,1.57,0.69c0.56,0.2,1.08,0.45,1.57,0.74c0.49,0.29,0.89,0.66,1.22,1.12c0.33,0.46,0.49,1.07,0.49,1.83
		c0,0.64-0.11,1.24-0.34,1.81c-0.23,0.57-0.56,1.06-1,1.49c-0.44,0.42-0.97,0.75-1.6,0.98c-0.63,0.23-1.35,0.34-2.15,0.34
		c-0.86,0-1.55-0.11-2.09-0.34c-0.53-0.23-0.98-0.49-1.34-0.78c0.12-0.32,0.21-0.61,0.26-0.86c0.05-0.25,0.1-0.58,0.14-0.99h0.25
		C575.92,156.24,576.07,156.49,576.25,156.75"/>
	<polygon points="590.78,154.49 585.6,154.49 585.6,153.2 590.78,153.2 590.78,154.49 	"/>
	<path d="M610.49,146.61c-0.01-1.07-0.05-1.8-0.1-2.2c0.15,0.03,0.3,0.05,0.44,0.07c0.14,0.02,0.28,0.03,0.42,0.03
		c0.18,0,0.39-0.03,0.63-0.1c-0.04,0.49-0.08,1.06-0.12,1.74c-0.04,0.67-0.08,1.39-0.11,2.16c-0.03,0.77-0.06,1.56-0.08,2.37
		c-0.03,0.81-0.05,1.6-0.06,2.36c-0.01,0.93-0.16,1.76-0.43,2.49c-0.27,0.74-0.66,1.36-1.15,1.87c-0.5,0.52-1.11,0.9-1.84,1.17
		c-0.73,0.26-1.56,0.4-2.51,0.4c-2.08,0-3.59-0.47-4.53-1.41c-0.94-0.94-1.41-2.43-1.41-4.47c0-0.65,0.02-1.23,0.05-1.74
		c0.03-0.51,0.05-1.02,0.05-1.55c0-1.16-0.01-2.2-0.04-3.1c-0.03-0.9-0.05-1.66-0.08-2.29c0.17,0.03,0.35,0.05,0.54,0.07
		c0.2,0.02,0.38,0.03,0.54,0.03c0.15,0,0.3-0.01,0.45-0.03c0.14-0.02,0.29-0.05,0.45-0.07c-0.03,0.31-0.06,0.7-0.08,1.2
		c-0.03,0.49-0.06,1.05-0.08,1.67c-0.03,0.62-0.05,1.3-0.06,2.02c-0.01,0.72-0.02,1.47-0.02,2.25c0,0.47,0.01,0.96,0.02,1.46
		c0.01,0.51,0.06,1,0.15,1.48c0.08,0.48,0.22,0.94,0.41,1.37c0.19,0.44,0.45,0.82,0.8,1.15c0.35,0.32,0.78,0.58,1.31,0.77
		c0.53,0.19,1.18,0.28,1.96,0.28c0.76,0,1.41-0.11,1.92-0.33c0.52-0.22,0.95-0.51,1.28-0.87c0.33-0.36,0.59-0.78,0.78-1.25
		c0.19-0.47,0.32-0.96,0.41-1.47c0.08-0.51,0.13-1.03,0.14-1.54c0.01-0.51,0.02-0.98,0.02-1.41
		C610.51,149.2,610.5,147.68,610.49,146.61"/>
	<path d="M622.57,153.3c-1.8-1.93-3.6-3.86-5.41-5.77c-0.01,0.39-0.03,0.91-0.04,1.56c-0.01,0.65-0.02,1.54-0.02,2.66
		c0,0.29,0,0.65,0.01,1.08c0.01,0.43,0.01,0.88,0.02,1.35c0.01,0.47,0.02,0.95,0.03,1.43c0.01,0.49,0.03,0.94,0.04,1.35
		c0.01,0.42,0.03,0.78,0.04,1.09c0.01,0.31,0.03,0.52,0.04,0.63c-0.22-0.03-0.47-0.04-0.73-0.04c-0.28,0-0.53,0.01-0.77,0.04
		c0.03-0.14,0.06-0.4,0.09-0.77c0.03-0.38,0.07-0.82,0.09-1.34c0.03-0.52,0.06-1.08,0.09-1.69c0.03-0.61,0.06-1.22,0.08-1.83
		c0.02-0.61,0.04-1.21,0.05-1.79c0.02-0.58,0.02-1.1,0.02-1.56c0-1.33,0-2.47-0.01-3.43c-0.01-0.96-0.03-1.67-0.05-2.14h0.33
		c0.85,0.92,1.75,1.9,2.71,2.94c0.96,1.05,1.92,2.08,2.87,3.1c0.95,1.02,1.85,1.98,2.7,2.89c0.85,0.91,1.6,1.68,2.23,2.32v-2.83
		c0-1.46-0.01-2.87-0.03-4.25c-0.02-1.38-0.07-2.68-0.13-3.9c0.28,0.07,0.51,0.1,0.71,0.1c0.17,0,0.39-0.03,0.66-0.1
		c-0.03,0.31-0.06,0.76-0.09,1.37c-0.03,0.61-0.07,1.26-0.1,1.95c-0.03,0.69-0.07,1.37-0.09,2.04c-0.03,0.67-0.04,1.2-0.04,1.6v1.25
		c0,0.47,0,0.97,0.01,1.48c0.01,0.51,0.01,1.03,0.02,1.55c0.01,0.52,0.01,1.01,0.02,1.46c0.01,0.45,0.01,0.84,0.01,1.18v0.69h-0.29
		C626.07,157.12,624.38,155.23,622.57,153.3"/>
	<path d="M632.19,147.1c-0.03-0.88-0.07-1.78-0.11-2.69c0.53,0.03,1.05,0.05,1.57,0.07c0.52,0.02,1.04,0.03,1.57,0.03
		c0.53,0,1.05-0.02,1.57-0.05c0.52-0.04,1.04-0.05,1.57-0.05c1.22,0,2.26,0.16,3.13,0.48c0.87,0.32,1.58,0.77,2.13,1.36
		c0.56,0.59,0.96,1.31,1.22,2.16c0.26,0.85,0.38,1.81,0.38,2.88c0,1.39-0.24,2.55-0.72,3.5c-0.48,0.95-1.09,1.71-1.83,2.3
		c-0.74,0.58-1.56,1-2.45,1.24c-0.9,0.24-1.75,0.36-2.57,0.36c-0.47,0-0.93-0.01-1.39-0.02c-0.46-0.02-0.92-0.02-1.4-0.02h-1.39
		c-0.46,0-0.92,0.01-1.39,0.04c0.04-0.86,0.08-1.73,0.11-2.62c0.04-0.88,0.05-1.79,0.05-2.7v-3.58
		C632.24,148.88,632.22,147.98,632.19,147.1 M634.07,157.78c0.29,0.07,0.68,0.12,1.18,0.16c0.5,0.04,1.01,0.05,1.54,0.05
		c0.76,0,1.52-0.09,2.29-0.27c0.76-0.18,1.45-0.52,2.05-1.02c0.6-0.5,1.1-1.18,1.48-2.05c0.38-0.86,0.57-1.99,0.57-3.36
		c0-1.21-0.15-2.2-0.45-2.97c-0.3-0.78-0.71-1.39-1.23-1.84c-0.52-0.45-1.14-0.76-1.86-0.93c-0.72-0.17-1.51-0.26-2.37-0.26
		c-0.62,0-1.21,0.02-1.75,0.06c-0.54,0.04-1.03,0.09-1.45,0.14c-0.04,0.67-0.07,1.36-0.1,2.09c-0.02,0.73-0.03,1.47-0.03,2.21v3.58
		C633.95,154.87,633.99,156.33,634.07,157.78"/>
	<path d="M275.46,172.09c-0.02-1.07-0.05-1.8-0.1-2.2c0.15,0.03,0.3,0.05,0.44,0.07c0.14,0.02,0.28,0.03,0.42,0.03
		c0.18,0,0.39-0.03,0.62-0.1c-0.04,0.49-0.08,1.06-0.13,1.74c-0.04,0.67-0.08,1.39-0.1,2.16c-0.03,0.77-0.05,1.56-0.08,2.37
		c-0.03,0.81-0.05,1.6-0.06,2.36c-0.01,0.93-0.16,1.76-0.43,2.5c-0.27,0.73-0.66,1.36-1.15,1.87c-0.5,0.51-1.11,0.9-1.84,1.16
		c-0.73,0.27-1.56,0.39-2.51,0.39c-2.08,0-3.59-0.47-4.53-1.41c-0.94-0.94-1.41-2.43-1.41-4.47c0-0.65,0.02-1.23,0.05-1.74
		c0.03-0.51,0.05-1.02,0.05-1.55c0-1.16-0.01-2.2-0.04-3.1c-0.03-0.9-0.06-1.66-0.08-2.29c0.17,0.03,0.35,0.05,0.54,0.07
		c0.19,0.02,0.37,0.03,0.54,0.03c0.15,0,0.3-0.01,0.45-0.03c0.15-0.02,0.29-0.05,0.45-0.07c-0.03,0.3-0.05,0.7-0.08,1.2
		c-0.03,0.49-0.06,1.05-0.08,1.67c-0.03,0.63-0.05,1.3-0.06,2.02c-0.01,0.72-0.02,1.47-0.02,2.25c0,0.47,0.01,0.96,0.02,1.47
		c0.01,0.51,0.06,1,0.14,1.48c0.08,0.48,0.22,0.93,0.41,1.37c0.19,0.44,0.45,0.82,0.8,1.14c0.35,0.33,0.78,0.58,1.31,0.77
		c0.53,0.19,1.18,0.28,1.95,0.28c0.76,0,1.41-0.11,1.92-0.33c0.52-0.22,0.94-0.51,1.28-0.87c0.33-0.36,0.59-0.78,0.78-1.25
		c0.19-0.47,0.32-0.96,0.41-1.48c0.08-0.51,0.13-1.03,0.15-1.54c0.02-0.51,0.02-0.98,0.02-1.41
		C275.48,174.68,275.48,173.16,275.46,172.09"/>
	<path d="M287.54,178.77c-1.8-1.93-3.6-3.85-5.41-5.77c-0.01,0.39-0.03,0.91-0.04,1.56c-0.01,0.65-0.02,1.54-0.02,2.66
		c0,0.29,0,0.65,0.01,1.08c0.01,0.43,0.01,0.88,0.02,1.35c0.01,0.47,0.02,0.95,0.03,1.43c0.02,0.49,0.03,0.94,0.04,1.36
		c0.01,0.41,0.03,0.78,0.04,1.09c0.02,0.31,0.03,0.52,0.04,0.63c-0.22-0.03-0.46-0.04-0.73-0.04c-0.28,0-0.54,0.01-0.77,0.04
		c0.03-0.14,0.06-0.39,0.09-0.77c0.03-0.38,0.07-0.82,0.09-1.34c0.03-0.52,0.06-1.09,0.09-1.69c0.04-0.61,0.06-1.22,0.08-1.83
		c0.02-0.61,0.04-1.21,0.05-1.79c0.01-0.58,0.02-1.1,0.02-1.56c0-1.33,0-2.48-0.01-3.43c-0.01-0.96-0.02-1.67-0.05-2.14h0.33
		c0.85,0.91,1.75,1.89,2.71,2.94c0.97,1.05,1.92,2.08,2.87,3.1c0.95,1.02,1.85,1.98,2.7,2.89c0.85,0.91,1.6,1.68,2.24,2.32v-2.83
		c0-1.46-0.01-2.87-0.03-4.25c-0.02-1.38-0.07-2.68-0.14-3.9c0.28,0.07,0.51,0.1,0.71,0.1c0.17,0,0.39-0.03,0.67-0.1
		c-0.03,0.3-0.06,0.76-0.09,1.37c-0.03,0.61-0.07,1.26-0.1,1.96c-0.03,0.69-0.07,1.37-0.09,2.04c-0.03,0.67-0.04,1.2-0.04,1.6v1.25
		c0,0.47,0,0.96,0.01,1.48c0.01,0.52,0.01,1.03,0.02,1.55c0.01,0.52,0.01,1.01,0.02,1.46c0.01,0.45,0.01,0.84,0.01,1.17v0.68h-0.29
		C291.04,182.6,289.35,180.71,287.54,178.77"/>
	<path d="M297.16,172.58c-0.04-0.88-0.07-1.78-0.11-2.69c0.18,0.03,0.35,0.05,0.52,0.08c0.17,0.02,0.33,0.03,0.5,0.03
		c0.17,0,0.33-0.01,0.5-0.03c0.17-0.02,0.34-0.05,0.52-0.08c-0.04,0.92-0.08,1.82-0.11,2.69c-0.03,0.88-0.05,1.78-0.05,2.69v3.58
		c0,0.92,0.02,1.82,0.05,2.7c0.04,0.89,0.07,1.76,0.11,2.62c-0.32-0.03-0.66-0.04-1.02-0.04c-0.36,0-0.7,0.01-1.02,0.04
		c0.04-0.86,0.08-1.73,0.11-2.62c0.03-0.89,0.05-1.79,0.05-2.7v-3.58C297.21,174.36,297.2,173.46,297.16,172.58"/>
	<path d="M306.05,181.22c-0.46-1.15-0.95-2.36-1.47-3.64c-0.52-1.28-1.05-2.58-1.6-3.91c-0.55-1.33-1.07-2.59-1.57-3.78
		c0.19,0.03,0.38,0.05,0.56,0.07c0.18,0.02,0.35,0.03,0.52,0.03c0.17,0,0.34-0.01,0.52-0.03c0.18-0.02,0.37-0.05,0.56-0.07
		c0.3,0.91,0.64,1.87,1.01,2.88c0.37,1,0.76,2.03,1.16,3.07c0.41,1.04,0.83,2.09,1.26,3.16c0.43,1.07,0.87,2.13,1.31,3.18
		c0.25-0.57,0.52-1.2,0.81-1.9c0.29-0.7,0.59-1.43,0.88-2.18c0.3-0.76,0.59-1.52,0.88-2.31c0.29-0.78,0.57-1.53,0.84-2.26
		c0.27-0.72,0.52-1.39,0.74-2.02c0.22-0.62,0.41-1.16,0.56-1.62c0.3,0.07,0.56,0.1,0.77,0.1c0.21,0,0.46-0.03,0.77-0.1
		c-1.08,2.41-2.12,4.8-3.12,7.17c-1,2.37-1.95,4.74-2.87,7.11c-0.22-0.03-0.45-0.04-0.69-0.04c-0.28,0-0.51,0.01-0.69,0.04
		C306.89,183.35,306.51,182.37,306.05,181.22"/>
	<path d="M317.02,172.55c-0.03-0.89-0.07-1.77-0.11-2.66c0.62,0.03,1.24,0.05,1.86,0.08c0.62,0.02,1.24,0.03,1.86,0.03
		c0.62,0,1.24-0.01,1.85-0.03c0.61-0.02,1.23-0.05,1.85-0.08c-0.04,0.21-0.06,0.42-0.06,0.63c0,0.21,0.02,0.42,0.06,0.62
		c-0.44-0.03-0.85-0.05-1.22-0.08c-0.37-0.03-0.76-0.06-1.16-0.08c-0.41-0.03-0.86-0.05-1.34-0.08c-0.49-0.02-1.07-0.03-1.75-0.03
		c-0.01,0.44-0.03,0.87-0.05,1.27c-0.02,0.4-0.03,0.86-0.03,1.37c0,0.54,0,1.07,0.01,1.58c0.01,0.51,0.01,0.9,0.01,1.16
		c0.61,0,1.16-0.01,1.64-0.02c0.48-0.01,0.93-0.03,1.33-0.05c0.4-0.02,0.77-0.04,1.11-0.06c0.34-0.02,0.66-0.05,0.97-0.07
		c-0.04,0.21-0.07,0.42-0.07,0.64c0,0.21,0.02,0.42,0.07,0.62c-0.36-0.04-0.78-0.08-1.26-0.11c-0.48-0.03-0.96-0.04-1.43-0.05
		c-0.48-0.01-0.93-0.01-1.35-0.02c-0.42-0.01-0.76-0.01-1.01-0.01c0,0.13,0,0.26-0.01,0.41c-0.01,0.14-0.01,0.33-0.01,0.55v0.81
		v1.25c0,0.79,0,1.44,0.01,1.95c0.01,0.51,0.02,0.9,0.03,1.16h1.45c0.53,0,1.04-0.01,1.55-0.03c0.51-0.02,0.98-0.05,1.43-0.08
		c0.45-0.03,0.84-0.09,1.18-0.15c-0.03,0.1-0.05,0.2-0.05,0.32c-0.01,0.12-0.01,0.23-0.01,0.32c0,0.22,0.02,0.4,0.06,0.54
		c-0.62-0.03-1.24-0.04-1.86-0.04h-1.88h-1.89c-0.62,0-1.25,0.01-1.89,0.04c0.04-0.89,0.08-1.77,0.11-2.65
		c0.04-0.88,0.05-1.78,0.05-2.69v-3.58C317.07,174.33,317.05,173.43,317.02,172.55"/>
	<path d="M327.52,172.58c-0.04-0.88-0.07-1.78-0.12-2.69c0.4,0.03,0.8,0.05,1.19,0.08c0.39,0.02,0.78,0.03,1.18,0.03
		c0.4,0,0.8-0.02,1.18-0.05c0.39-0.04,0.78-0.05,1.19-0.05c0.58,0,1.14,0.06,1.66,0.17c0.53,0.11,0.99,0.3,1.38,0.55
		c0.39,0.26,0.71,0.59,0.93,1.01c0.23,0.42,0.34,0.93,0.34,1.56c0,0.67-0.15,1.24-0.45,1.72c-0.3,0.48-0.66,0.87-1.09,1.19
		c-0.43,0.31-0.89,0.55-1.38,0.73c-0.49,0.17-0.94,0.29-1.34,0.34c0.17,0.21,0.4,0.5,0.69,0.87c0.29,0.37,0.62,0.79,0.98,1.24
		c0.36,0.45,0.74,0.92,1.12,1.41c0.39,0.49,0.76,0.97,1.12,1.41c0.36,0.45,0.7,0.86,1.02,1.24c0.32,0.38,0.57,0.66,0.77,0.86
		c-0.21-0.03-0.41-0.04-0.62-0.04h-0.62h-0.6c-0.21,0-0.41,0.01-0.6,0.04c-0.21-0.29-0.52-0.73-0.95-1.31
		c-0.42-0.58-0.89-1.2-1.4-1.87c-0.51-0.67-1.04-1.33-1.57-1.99c-0.53-0.66-1.02-1.21-1.47-1.67h-0.79v1.52
		c0,0.92,0.02,1.82,0.05,2.7c0.03,0.89,0.07,1.76,0.11,2.62c-0.32-0.03-0.66-0.04-1.02-0.04c-0.36,0-0.7,0.01-1.02,0.04
		c0.04-0.86,0.08-1.73,0.12-2.62c0.03-0.89,0.05-1.79,0.05-2.7v-3.58C327.57,174.36,327.55,173.46,327.52,172.58 M329.91,176.54
		c0.23,0.01,0.48,0.02,0.76,0.02c0.43,0,0.88-0.05,1.34-0.15c0.46-0.1,0.89-0.27,1.28-0.51c0.39-0.24,0.71-0.57,0.97-0.98
		c0.26-0.41,0.38-0.93,0.38-1.55c0-0.54-0.1-0.99-0.3-1.34c-0.2-0.35-0.46-0.64-0.78-0.84c-0.32-0.21-0.66-0.35-1.04-0.42
		c-0.37-0.08-0.74-0.12-1.1-0.12c-0.49,0-0.89,0.01-1.2,0.03c-0.32,0.02-0.59,0.05-0.81,0.07c-0.03,0.76-0.06,1.52-0.08,2.27
		c-0.03,0.75-0.04,1.5-0.04,2.25v1.19C329.47,176.5,329.68,176.53,329.91,176.54"/>
	<path d="M340.37,182.23c0.19,0.25,0.41,0.49,0.69,0.7c0.27,0.21,0.59,0.38,0.95,0.51c0.36,0.13,0.76,0.2,1.21,0.2
		c0.46,0,0.87-0.08,1.24-0.24c0.37-0.16,0.68-0.38,0.94-0.64c0.26-0.27,0.45-0.59,0.59-0.96c0.14-0.37,0.21-0.76,0.21-1.17
		c0-0.63-0.16-1.14-0.49-1.52c-0.32-0.37-0.73-0.68-1.22-0.93c-0.49-0.25-1.01-0.48-1.57-0.68c-0.56-0.21-1.08-0.47-1.57-0.78
		c-0.49-0.31-0.89-0.71-1.22-1.2c-0.33-0.49-0.49-1.14-0.49-1.96c0-0.58,0.1-1.11,0.31-1.59c0.21-0.48,0.51-0.89,0.9-1.24
		c0.39-0.35,0.87-0.62,1.42-0.81c0.55-0.2,1.18-0.29,1.87-0.29c0.67,0,1.24,0.08,1.73,0.24c0.49,0.16,0.94,0.41,1.35,0.74
		c-0.13,0.24-0.23,0.49-0.31,0.75c-0.08,0.26-0.17,0.59-0.25,1h-0.25c-0.07-0.19-0.16-0.4-0.28-0.63c-0.12-0.23-0.28-0.44-0.48-0.63
		c-0.2-0.2-0.44-0.36-0.72-0.49c-0.28-0.13-0.61-0.2-1-0.2c-0.39,0-0.74,0.06-1.07,0.19c-0.33,0.12-0.61,0.3-0.85,0.53
		c-0.24,0.23-0.43,0.51-0.56,0.82c-0.13,0.32-0.2,0.67-0.2,1.04c0,0.65,0.16,1.16,0.49,1.54c0.33,0.37,0.73,0.69,1.22,0.95
		c0.48,0.26,1.01,0.48,1.57,0.68c0.56,0.2,1.08,0.45,1.57,0.74c0.48,0.29,0.89,0.67,1.22,1.12c0.33,0.46,0.49,1.07,0.49,1.83
		c0,0.64-0.11,1.24-0.34,1.81c-0.23,0.57-0.56,1.06-1,1.49c-0.44,0.42-0.97,0.75-1.6,0.98c-0.63,0.23-1.35,0.34-2.15,0.34
		c-0.86,0-1.56-0.11-2.09-0.34c-0.53-0.23-0.98-0.49-1.34-0.78c0.12-0.32,0.21-0.61,0.26-0.86c0.05-0.26,0.09-0.59,0.13-0.99h0.25
		C340.03,181.72,340.18,181.97,340.37,182.23"/>
	<path d="M350.83,172.58c-0.04-0.88-0.07-1.78-0.12-2.69c0.18,0.03,0.35,0.05,0.52,0.08c0.17,0.02,0.33,0.03,0.5,0.03
		c0.17,0,0.33-0.01,0.5-0.03c0.17-0.02,0.34-0.05,0.52-0.08c-0.04,0.92-0.08,1.82-0.11,2.69c-0.03,0.88-0.05,1.78-0.05,2.69v3.58
		c0,0.92,0.02,1.82,0.05,2.7c0.03,0.89,0.07,1.76,0.11,2.62c-0.32-0.03-0.66-0.04-1.02-0.04c-0.36,0-0.7,0.01-1.02,0.04
		c0.04-0.86,0.08-1.73,0.12-2.62c0.03-0.89,0.05-1.79,0.05-2.7v-3.58C350.88,174.36,350.86,173.46,350.83,172.58"/>
	<path d="M359.59,170.97c-0.36,0-0.74,0-1.13,0.01c-0.39,0.01-0.79,0.02-1.19,0.04c-0.39,0.02-0.78,0.05-1.14,0.08
		c-0.37,0.03-0.7,0.06-0.99,0.1c0.07-0.25,0.1-0.47,0.1-0.67c0-0.15-0.04-0.37-0.1-0.64c0.91,0.03,1.81,0.05,2.68,0.08
		c0.87,0.02,1.77,0.03,2.68,0.03c0.92,0,1.81-0.01,2.68-0.03c0.87-0.02,1.77-0.05,2.68-0.08c-0.07,0.28-0.1,0.5-0.1,0.67
		c0,0.18,0.03,0.39,0.1,0.64c-0.29-0.04-0.62-0.08-0.99-0.1c-0.37-0.03-0.75-0.05-1.15-0.08c-0.39-0.02-0.79-0.03-1.19-0.04
		c-0.39-0.01-0.77-0.01-1.13-0.01c-0.04,1.43-0.06,2.86-0.06,4.3v3.58c0,0.91,0.02,1.82,0.05,2.7c0.03,0.89,0.07,1.76,0.11,2.62
		c-0.32-0.03-0.66-0.04-1.02-0.04c-0.36,0-0.7,0.01-1.02,0.04c0.04-0.86,0.08-1.73,0.12-2.62c0.03-0.89,0.05-1.79,0.05-2.7v-3.58
		C359.66,173.83,359.64,172.39,359.59,170.97"/>
	<path d="M374.73,172.23c0.39,0.94,0.78,1.88,1.19,2.84c0.4,0.96,0.8,1.91,1.21,2.85c0.4,0.95,0.78,1.82,1.13,2.63
		c0.35,0.81,0.67,1.54,0.96,2.17c0.28,0.64,0.52,1.12,0.7,1.45c-0.19-0.03-0.38-0.04-0.55-0.04h-0.55h-0.55
		c-0.17,0-0.36,0.01-0.55,0.04c-0.1-0.32-0.23-0.7-0.39-1.15c-0.17-0.45-0.35-0.92-0.55-1.41c-0.2-0.49-0.4-0.99-0.61-1.5
		c-0.21-0.51-0.4-0.99-0.58-1.45c-0.44-0.01-0.89-0.02-1.35-0.03c-0.46-0.01-0.91-0.01-1.37-0.01c-0.43,0-0.85,0-1.27,0.01
		c-0.42,0.01-0.84,0.02-1.27,0.03c-0.44,1.08-0.85,2.11-1.21,3.09c-0.36,0.98-0.63,1.78-0.81,2.42c-0.24-0.03-0.49-0.04-0.77-0.04
		c-0.28,0-0.53,0.01-0.77,0.04c1.12-2.43,2.22-4.84,3.28-7.24c1.07-2.4,2.14-4.84,3.22-7.32h0.39
		C373.98,170.42,374.34,171.29,374.73,172.23 M370.53,166.56c0.21-0.21,0.46-0.31,0.75-0.31c0.29,0,0.54,0.1,0.75,0.31
		c0.21,0.21,0.31,0.46,0.31,0.75c0,0.29-0.1,0.54-0.31,0.75c-0.21,0.21-0.46,0.31-0.75,0.31c-0.29,0-0.54-0.1-0.75-0.31
		c-0.21-0.21-0.31-0.45-0.31-0.75C370.22,167.02,370.32,166.77,370.53,166.56 M370.7,177.7c0.36,0,0.74,0.01,1.12,0.02
		c0.39,0.01,0.76,0.02,1.12,0.02c0.39,0,0.78,0,1.16-0.01c0.39-0.01,0.78-0.02,1.16-0.03l-2.31-5.28L370.7,177.7L370.7,177.7z
		 M374.63,166.56c0.21-0.21,0.46-0.31,0.75-0.31c0.29,0,0.54,0.1,0.75,0.31c0.21,0.21,0.31,0.46,0.31,0.75
		c0,0.29-0.1,0.54-0.31,0.75c-0.21,0.21-0.46,0.31-0.75,0.31c-0.29,0-0.54-0.1-0.75-0.31c-0.21-0.21-0.31-0.45-0.31-0.75
		C374.31,167.02,374.42,166.77,374.63,166.56"/>
	<path d="M385.23,170.97c-0.36,0-0.74,0-1.13,0.01c-0.39,0.01-0.79,0.02-1.19,0.04c-0.4,0.02-0.78,0.05-1.14,0.08
		c-0.37,0.03-0.7,0.06-0.99,0.1c0.07-0.25,0.1-0.47,0.1-0.67c0-0.15-0.04-0.37-0.1-0.64c0.91,0.03,1.81,0.05,2.68,0.08
		c0.87,0.02,1.77,0.03,2.68,0.03s1.81-0.01,2.68-0.03c0.87-0.02,1.77-0.05,2.68-0.08c-0.07,0.28-0.1,0.5-0.1,0.67
		c0,0.18,0.03,0.39,0.1,0.64c-0.29-0.04-0.62-0.08-0.99-0.1c-0.37-0.03-0.75-0.05-1.14-0.08c-0.39-0.02-0.79-0.03-1.18-0.04
		c-0.4-0.01-0.77-0.01-1.14-0.01c-0.04,1.43-0.06,2.86-0.06,4.3v3.58c0,0.91,0.02,1.82,0.05,2.7c0.03,0.89,0.07,1.76,0.12,2.62
		c-0.32-0.03-0.66-0.04-1.02-0.04c-0.36,0-0.7,0.01-1.02,0.04c0.04-0.86,0.08-1.73,0.11-2.62c0.04-0.89,0.05-1.79,0.05-2.7v-3.58
		C385.29,173.83,385.27,172.39,385.23,170.97"/>
	<path d="M394.06,182.23c0.18,0.25,0.41,0.49,0.68,0.7c0.27,0.21,0.59,0.38,0.95,0.51c0.36,0.13,0.76,0.2,1.21,0.2
		c0.46,0,0.87-0.08,1.24-0.24c0.37-0.16,0.68-0.38,0.94-0.64c0.26-0.27,0.45-0.59,0.59-0.96c0.14-0.37,0.21-0.76,0.21-1.17
		c0-0.63-0.16-1.14-0.49-1.52c-0.32-0.37-0.73-0.68-1.21-0.93c-0.49-0.25-1.01-0.48-1.57-0.68c-0.56-0.21-1.09-0.47-1.57-0.78
		c-0.49-0.31-0.89-0.71-1.22-1.2c-0.32-0.49-0.49-1.14-0.49-1.96c0-0.58,0.1-1.11,0.31-1.59c0.21-0.48,0.51-0.89,0.9-1.24
		c0.39-0.35,0.87-0.62,1.42-0.81c0.55-0.2,1.18-0.29,1.87-0.29c0.67,0,1.24,0.08,1.73,0.24c0.49,0.16,0.93,0.41,1.35,0.74
		c-0.13,0.24-0.23,0.49-0.31,0.75c-0.08,0.26-0.17,0.59-0.25,1h-0.25c-0.07-0.19-0.16-0.4-0.28-0.63c-0.12-0.23-0.28-0.44-0.48-0.63
		c-0.2-0.2-0.44-0.36-0.72-0.49c-0.28-0.13-0.61-0.2-1-0.2c-0.39,0-0.74,0.06-1.07,0.19c-0.33,0.12-0.61,0.3-0.85,0.53
		c-0.24,0.23-0.43,0.51-0.56,0.82c-0.13,0.32-0.2,0.67-0.2,1.04c0,0.65,0.16,1.16,0.49,1.54c0.32,0.37,0.73,0.69,1.21,0.95
		c0.49,0.26,1.01,0.48,1.57,0.68c0.56,0.2,1.08,0.45,1.57,0.74c0.49,0.29,0.89,0.67,1.22,1.12c0.32,0.46,0.49,1.07,0.49,1.83
		c0,0.64-0.12,1.24-0.35,1.81c-0.23,0.57-0.56,1.06-1,1.49c-0.44,0.42-0.97,0.75-1.6,0.98c-0.63,0.23-1.35,0.34-2.15,0.34
		c-0.86,0-1.56-0.11-2.09-0.34c-0.54-0.23-0.98-0.49-1.34-0.78c0.12-0.32,0.21-0.61,0.26-0.86c0.05-0.26,0.09-0.59,0.14-0.99h0.25
		C393.72,181.72,393.87,181.97,394.06,182.23"/>
	<path d="M404.52,172.55c-0.03-0.89-0.07-1.77-0.12-2.66c0.36,0.03,0.73,0.05,1.1,0.08c0.37,0.02,0.74,0.03,1.1,0.03
		c0.36,0,0.73-0.02,1.1-0.05c0.38-0.04,0.74-0.05,1.1-0.05c0.6,0,1.16,0.05,1.69,0.14c0.53,0.09,0.99,0.25,1.39,0.48
		c0.4,0.23,0.72,0.54,0.96,0.92c0.24,0.39,0.35,0.87,0.35,1.45c0,1.03-0.32,1.83-0.97,2.41c-0.65,0.58-1.49,0.99-2.53,1.23v0.04
		c1.23,0.05,2.21,0.35,2.92,0.89c0.71,0.54,1.07,1.41,1.07,2.6c0,0.78-0.16,1.43-0.48,1.96c-0.32,0.53-0.73,0.95-1.25,1.28
		c-0.51,0.33-1.08,0.55-1.69,0.69c-0.62,0.13-1.23,0.2-1.84,0.2c-0.33,0-0.67-0.01-1.01-0.02c-0.34-0.01-0.68-0.02-1.01-0.02h-1.01
		c-0.34,0-0.68,0.01-1.01,0.04c0.04-0.89,0.08-1.77,0.12-2.65c0.04-0.88,0.05-1.78,0.05-2.69v-3.58
		C404.57,174.34,404.55,173.43,404.52,172.55 M408.84,176.12c0.48-0.1,0.9-0.26,1.28-0.49c0.38-0.23,0.68-0.53,0.9-0.92
		c0.23-0.38,0.34-0.86,0.34-1.45c0-0.57-0.1-1.02-0.31-1.36c-0.21-0.34-0.47-0.6-0.79-0.79c-0.32-0.19-0.68-0.31-1.08-0.38
		c-0.4-0.06-0.8-0.09-1.21-0.09c-0.36,0-0.66,0.01-0.91,0.03c-0.25,0.02-0.47,0.05-0.66,0.07c-0.03,0.67-0.06,1.33-0.08,1.98
		c-0.03,0.65-0.04,1.31-0.04,1.97v1.56h1.12C407.88,176.27,408.36,176.22,408.84,176.12 M406.32,181.26
		c0.03,0.69,0.06,1.39,0.08,2.1c0.26,0.03,0.57,0.05,0.93,0.07c0.36,0.02,0.73,0.03,1.1,0.03c0.44,0,0.87-0.08,1.28-0.23
		c0.41-0.15,0.77-0.38,1.07-0.68c0.3-0.3,0.55-0.67,0.73-1.1c0.18-0.44,0.27-0.93,0.27-1.49c0-0.59-0.11-1.08-0.32-1.46
		c-0.22-0.38-0.52-0.68-0.93-0.89c-0.4-0.22-0.88-0.36-1.45-0.45c-0.56-0.08-1.19-0.12-1.88-0.12h-0.94v2.12
		C406.27,179.87,406.29,180.57,406.32,181.26"/>
	<path d="M417.33,172.58c-0.04-0.88-0.07-1.78-0.11-2.69c0.18,0.03,0.35,0.05,0.52,0.08c0.17,0.02,0.33,0.03,0.5,0.03
		c0.17,0,0.33-0.01,0.5-0.03c0.17-0.02,0.34-0.05,0.52-0.08c-0.04,0.92-0.08,1.82-0.12,2.69c-0.03,0.88-0.05,1.78-0.05,2.69v3.58
		c0,0.92,0.02,1.82,0.05,2.7c0.04,0.89,0.07,1.76,0.12,2.62c-0.32-0.03-0.66-0.04-1.02-0.04c-0.36,0-0.7,0.01-1.02,0.04
		c0.04-0.86,0.08-1.73,0.11-2.62c0.03-0.89,0.05-1.79,0.05-2.7v-3.58C417.38,174.36,417.36,173.46,417.33,172.58"/>
	<path d="M423.21,172.55c-0.03-0.89-0.07-1.77-0.12-2.66c0.36,0.03,0.73,0.05,1.1,0.08c0.37,0.02,0.74,0.03,1.1,0.03
		c0.36,0,0.73-0.02,1.1-0.05c0.37-0.04,0.74-0.05,1.1-0.05c0.6,0,1.16,0.05,1.69,0.14c0.53,0.09,0.99,0.25,1.39,0.48
		c0.4,0.23,0.72,0.54,0.96,0.92c0.24,0.39,0.35,0.87,0.35,1.45c0,1.03-0.32,1.83-0.96,2.41c-0.65,0.58-1.49,0.99-2.53,1.23v0.04
		c1.24,0.05,2.21,0.35,2.92,0.89c0.71,0.54,1.07,1.41,1.07,2.6c0,0.78-0.16,1.43-0.48,1.96c-0.32,0.53-0.73,0.95-1.25,1.28
		c-0.51,0.33-1.08,0.55-1.69,0.69c-0.62,0.13-1.23,0.2-1.84,0.2c-0.33,0-0.67-0.01-1.01-0.02c-0.34-0.01-0.68-0.02-1.01-0.02h-1.01
		c-0.34,0-0.68,0.01-1.01,0.04c0.04-0.89,0.08-1.77,0.12-2.65c0.03-0.88,0.05-1.78,0.05-2.69v-3.58
		C423.26,174.34,423.25,173.43,423.21,172.55 M427.54,176.12c0.48-0.1,0.9-0.26,1.28-0.49c0.38-0.23,0.68-0.53,0.91-0.92
		c0.23-0.38,0.34-0.86,0.34-1.45c0-0.57-0.1-1.02-0.31-1.36c-0.21-0.34-0.47-0.6-0.79-0.79c-0.32-0.19-0.68-0.31-1.08-0.38
		c-0.4-0.06-0.8-0.09-1.21-0.09c-0.36,0-0.66,0.01-0.91,0.03c-0.25,0.02-0.47,0.05-0.67,0.07c-0.03,0.67-0.06,1.33-0.08,1.98
		c-0.03,0.65-0.04,1.31-0.04,1.97v1.56h1.13C426.58,176.27,427.06,176.22,427.54,176.12 M425.01,181.26
		c0.03,0.69,0.06,1.39,0.08,2.1c0.26,0.03,0.57,0.05,0.94,0.07c0.36,0.02,0.73,0.03,1.1,0.03c0.44,0,0.87-0.08,1.28-0.23
		c0.41-0.15,0.77-0.38,1.07-0.68c0.3-0.3,0.55-0.67,0.73-1.1c0.18-0.44,0.27-0.93,0.27-1.49c0-0.59-0.11-1.08-0.32-1.46
		c-0.22-0.38-0.52-0.68-0.92-0.89c-0.4-0.22-0.89-0.36-1.45-0.45c-0.56-0.08-1.19-0.12-1.88-0.12h-0.94v2.12
		C424.97,179.87,424.98,180.57,425.01,181.26"/>
	<path d="M436.02,172.58c-0.03-0.88-0.07-1.78-0.11-2.69c0.18,0.03,0.35,0.05,0.52,0.08c0.17,0.02,0.33,0.03,0.5,0.03
		s0.33-0.01,0.5-0.03c0.17-0.02,0.34-0.05,0.52-0.08c-0.04,0.92-0.08,1.82-0.11,2.69c-0.04,0.88-0.05,1.78-0.05,2.69
		c0,1.75,0.01,3.26,0.02,4.54c0.01,1.28,0.03,2.43,0.04,3.44c0.99,0,1.93-0.01,2.83-0.03c0.9-0.02,1.87-0.1,2.91-0.24
		c-0.07,0.25-0.1,0.46-0.1,0.63c0,0.15,0.04,0.34,0.1,0.56c-0.64-0.03-1.28-0.04-1.91-0.04h-1.91h-1.92c-0.62,0-1.26,0.01-1.92,0.04
		c0.04-0.86,0.08-1.73,0.11-2.62c0.04-0.89,0.05-1.79,0.05-2.7v-3.58C436.07,174.36,436.05,173.46,436.02,172.58"/>
	<path d="M446.52,172.58c-0.03-0.88-0.07-1.78-0.11-2.69c0.18,0.03,0.35,0.05,0.52,0.08c0.17,0.02,0.33,0.03,0.5,0.03
		s0.33-0.01,0.5-0.03c0.17-0.02,0.34-0.05,0.52-0.08c-0.04,0.92-0.08,1.82-0.12,2.69c-0.03,0.88-0.05,1.78-0.05,2.69v3.58
		c0,0.92,0.02,1.82,0.05,2.7c0.04,0.89,0.07,1.76,0.12,2.62c-0.32-0.03-0.66-0.04-1.02-0.04c-0.36,0-0.7,0.01-1.02,0.04
		c0.04-0.86,0.08-1.73,0.11-2.62c0.03-0.89,0.05-1.79,0.05-2.7v-3.58C446.58,174.36,446.56,173.46,446.52,172.58"/>
	<path d="M451.86,173.91c0.38-0.92,0.92-1.7,1.6-2.34c0.69-0.64,1.51-1.12,2.46-1.45c0.96-0.33,2-0.5,3.14-0.5
		c1.15,0,2.2,0.17,3.16,0.5c0.96,0.33,1.78,0.82,2.47,1.45c0.68,0.64,1.22,1.42,1.6,2.34c0.38,0.92,0.57,1.97,0.57,3.15
		c0,1.18-0.19,2.23-0.57,3.15c-0.38,0.92-0.91,1.7-1.6,2.34c-0.69,0.64-1.51,1.11-2.47,1.42c-0.96,0.31-2.01,0.47-3.16,0.47
		c-1.14,0-2.18-0.15-3.14-0.47c-0.96-0.31-1.78-0.79-2.46-1.42c-0.69-0.64-1.22-1.42-1.6-2.34c-0.38-0.92-0.57-1.97-0.57-3.15
		C451.29,175.88,451.48,174.83,451.86,173.91 M464.39,174.08c-0.29-0.84-0.7-1.53-1.22-2.08c-0.52-0.55-1.13-0.95-1.83-1.22
		c-0.7-0.27-1.46-0.39-2.28-0.39c-0.8,0-1.56,0.13-2.25,0.39c-0.7,0.27-1.31,0.67-1.83,1.22c-0.52,0.55-0.93,1.24-1.22,2.08
		c-0.29,0.84-0.44,1.83-0.44,2.98c0,1.15,0.15,2.15,0.44,2.98c0.29,0.84,0.7,1.53,1.22,2.08c0.52,0.55,1.13,0.95,1.83,1.22
		c0.7,0.26,1.45,0.39,2.25,0.39c0.82,0,1.58-0.13,2.28-0.39c0.7-0.26,1.31-0.67,1.83-1.22s0.92-1.24,1.22-2.08
		c0.29-0.84,0.44-1.83,0.44-2.98C464.83,175.91,464.68,174.91,464.39,174.08"/>
	<path d="M471.94,170.97c-0.36,0-0.74,0-1.13,0.01c-0.4,0.01-0.79,0.02-1.19,0.04c-0.4,0.02-0.78,0.05-1.14,0.08
		c-0.37,0.03-0.7,0.06-0.99,0.1c0.07-0.25,0.1-0.47,0.1-0.67c0-0.15-0.04-0.37-0.1-0.64c0.91,0.03,1.81,0.05,2.68,0.08
		c0.87,0.02,1.77,0.03,2.68,0.03c0.92,0,1.81-0.01,2.68-0.03c0.87-0.02,1.77-0.05,2.68-0.08c-0.07,0.28-0.1,0.5-0.1,0.67
		c0,0.18,0.03,0.39,0.1,0.64c-0.29-0.04-0.62-0.08-0.99-0.1c-0.37-0.03-0.75-0.05-1.14-0.08c-0.4-0.02-0.79-0.03-1.18-0.04
		c-0.39-0.01-0.77-0.01-1.13-0.01c-0.04,1.43-0.06,2.86-0.06,4.3v3.58c0,0.91,0.02,1.82,0.05,2.7c0.03,0.89,0.07,1.76,0.11,2.62
		c-0.32-0.03-0.66-0.04-1.02-0.04c-0.36,0-0.7,0.01-1.02,0.04c0.04-0.86,0.08-1.73,0.11-2.62c0.03-0.89,0.05-1.79,0.05-2.7v-3.58
		C472,173.83,471.98,172.39,471.94,170.97"/>
	<path d="M491.12,172.58c-0.04-0.88-0.07-1.78-0.11-2.69c0.18,0.03,0.35,0.05,0.52,0.08c0.17,0.02,0.33,0.03,0.5,0.03
		c0.16,0,0.33-0.01,0.5-0.03c0.17-0.02,0.34-0.05,0.52-0.08c-0.04,0.92-0.08,1.82-0.11,2.69c-0.03,0.88-0.05,1.78-0.05,2.69v3.58
		c0,0.92,0.02,1.82,0.05,2.7c0.04,0.89,0.07,1.76,0.11,2.62c-0.32-0.03-0.66-0.04-1.02-0.04c-0.36,0-0.7,0.01-1.02,0.04
		c0.04-0.86,0.08-1.73,0.11-2.62c0.04-0.89,0.05-1.79,0.05-2.7v-1.87c-0.75-0.01-1.47-0.03-2.17-0.04c-0.7,0-1.42-0.01-2.17-0.01
		c-0.75,0-1.47,0-2.17,0.01c-0.7,0.01-1.42,0.02-2.17,0.04v1.87c0,0.92,0.02,1.82,0.05,2.7c0.04,0.89,0.07,1.76,0.12,2.62
		c-0.32-0.03-0.66-0.04-1.02-0.04c-0.36,0-0.7,0.01-1.02,0.04c0.04-0.86,0.08-1.73,0.11-2.62c0.04-0.89,0.05-1.79,0.05-2.7v-3.58
		c0-0.91-0.02-1.81-0.05-2.69c-0.03-0.88-0.07-1.78-0.11-2.69c0.18,0.03,0.35,0.05,0.52,0.08c0.17,0.02,0.33,0.03,0.5,0.03
		s0.33-0.01,0.5-0.03c0.17-0.02,0.34-0.05,0.52-0.08c-0.04,0.92-0.08,1.82-0.12,2.69c-0.03,0.88-0.05,1.78-0.05,2.69V176
		c0.75,0.01,1.47,0.03,2.17,0.04c0.7,0.01,1.42,0.02,2.17,0.02c0.75,0,1.47-0.01,2.17-0.02c0.7-0.01,1.42-0.03,2.17-0.04v-0.73
		C491.18,174.36,491.16,173.46,491.12,172.58"/>
	<path d="M497.01,172.55c-0.04-0.89-0.07-1.77-0.11-2.66c0.62,0.03,1.24,0.05,1.86,0.08c0.62,0.02,1.24,0.03,1.86,0.03
		c0.62,0,1.24-0.01,1.85-0.03c0.61-0.02,1.23-0.05,1.85-0.08c-0.04,0.21-0.06,0.42-0.06,0.63c0,0.21,0.02,0.42,0.06,0.62
		c-0.44-0.03-0.85-0.05-1.22-0.08c-0.37-0.03-0.76-0.06-1.16-0.08c-0.41-0.03-0.86-0.05-1.34-0.08c-0.49-0.02-1.07-0.03-1.75-0.03
		c-0.01,0.44-0.03,0.87-0.05,1.27c-0.02,0.4-0.03,0.86-0.03,1.37c0,0.54,0,1.07,0.01,1.58c0.01,0.51,0.01,0.9,0.01,1.16
		c0.61,0,1.16-0.01,1.64-0.02c0.49-0.01,0.93-0.03,1.33-0.05c0.4-0.02,0.77-0.04,1.11-0.06c0.34-0.02,0.66-0.05,0.97-0.07
		c-0.04,0.21-0.06,0.42-0.06,0.64c0,0.21,0.02,0.42,0.06,0.62c-0.36-0.04-0.78-0.08-1.26-0.11c-0.48-0.03-0.96-0.04-1.43-0.05
		c-0.48-0.01-0.93-0.01-1.35-0.02c-0.42-0.01-0.76-0.01-1.01-0.01c0,0.13,0,0.26-0.01,0.41c-0.01,0.14-0.01,0.33-0.01,0.55v0.81
		v1.25c0,0.79,0,1.44,0.01,1.95c0.01,0.51,0.02,0.9,0.03,1.16h1.46c0.53,0,1.04-0.01,1.55-0.03c0.51-0.02,0.98-0.05,1.44-0.08
		c0.45-0.03,0.84-0.09,1.17-0.15c-0.03,0.1-0.04,0.2-0.05,0.32c-0.01,0.12-0.01,0.23-0.01,0.32c0,0.22,0.02,0.4,0.06,0.54
		c-0.62-0.03-1.24-0.04-1.86-0.04h-1.88h-1.89c-0.62,0-1.25,0.01-1.89,0.04c0.04-0.89,0.08-1.77,0.11-2.65
		c0.03-0.88,0.05-1.78,0.05-2.69v-3.58C497.06,174.33,497.04,173.43,497.01,172.55"/>
	<path d="M507.51,181.55c0.03-0.89,0.05-1.79,0.05-2.7v-3.58c0-0.91-0.02-1.81-0.05-2.69c-0.04-0.88-0.07-1.78-0.11-2.69
		c0.18,0.03,0.35,0.05,0.52,0.08c0.17,0.02,0.33,0.03,0.5,0.03c0.17,0,0.33-0.01,0.5-0.03c0.17-0.02,0.34-0.05,0.52-0.08
		c-0.04,0.92-0.08,1.81-0.11,2.69c-0.03,0.88-0.05,1.78-0.05,2.69v1.15c0,0.11,0.04,0.17,0.12,0.17c0.06,0,0.15-0.06,0.29-0.19
		c0.48-0.42,0.99-0.89,1.53-1.41c0.53-0.53,1.07-1.07,1.61-1.64c0.54-0.57,1.08-1.15,1.6-1.74c0.53-0.59,1.03-1.16,1.52-1.72
		c0.15,0.03,0.3,0.05,0.44,0.08c0.14,0.02,0.28,0.03,0.42,0.03c0.17,0,0.33-0.01,0.5-0.03c0.17-0.02,0.33-0.05,0.5-0.08
		c-0.49,0.42-1.04,0.91-1.64,1.48c-0.61,0.57-1.22,1.15-1.84,1.75c-0.62,0.59-1.21,1.18-1.77,1.76c-0.56,0.57-1.03,1.08-1.4,1.51
		c1.12,1.26,2.26,2.55,3.4,3.86c1.14,1.31,2.3,2.62,3.48,3.94c-0.21-0.03-0.42-0.04-0.63-0.04h-0.62h-0.57
		c-0.18,0-0.38,0.01-0.57,0.04c-0.5-0.57-1.05-1.22-1.66-1.96c-0.6-0.73-1.19-1.44-1.77-2.13c-0.57-0.68-1.09-1.3-1.56-1.85
		c-0.46-0.55-0.81-0.93-1.03-1.15c-0.11-0.11-0.19-0.16-0.25-0.16c-0.07,0-0.1,0.04-0.1,0.13v1.81c0,0.91,0.02,1.81,0.05,2.7
		c0.03,0.89,0.07,1.76,0.11,2.62c-0.32-0.03-0.66-0.04-1.02-0.04s-0.7,0.01-1.02,0.04C507.44,183.31,507.48,182.44,507.51,181.55"/>
	<path d="M537.39,171.67c-0.31-0.25-0.66-0.47-1.04-0.66c-0.38-0.19-0.8-0.34-1.27-0.46c-0.46-0.12-0.96-0.18-1.49-0.18
		c-0.86,0-1.66,0.13-2.4,0.39c-0.74,0.27-1.39,0.67-1.93,1.22c-0.55,0.55-0.98,1.24-1.29,2.08c-0.31,0.84-0.47,1.83-0.47,2.98
		c0,1.01,0.14,1.93,0.42,2.74c0.28,0.82,0.68,1.51,1.22,2.07c0.53,0.56,1.19,0.99,1.95,1.3c0.77,0.3,1.64,0.46,2.61,0.46
		c0.29,0,0.6-0.01,0.91-0.04c0.32-0.03,0.63-0.07,0.93-0.12c0.3-0.06,0.57-0.13,0.83-0.21c0.26-0.08,0.47-0.18,0.65-0.29
		c0.01-0.41,0.02-0.83,0.03-1.25c0.01-0.42,0.01-0.84,0.01-1.27c0-0.48-0.01-0.97-0.03-1.45c-0.02-0.49-0.04-0.95-0.07-1.39
		c0.35,0.07,0.68,0.1,1,0.1c0.15,0,0.3-0.01,0.46-0.02c0.15-0.01,0.3-0.04,0.43-0.08c-0.03,0.32-0.05,0.82-0.06,1.51
		c-0.02,0.69-0.02,1.59-0.02,2.71c0,0.28,0,0.56,0.01,0.84c0.01,0.28,0.01,0.57,0.01,0.84c-0.29,0.11-0.66,0.23-1.09,0.34
		c-0.43,0.12-0.9,0.21-1.39,0.29c-0.49,0.08-0.98,0.14-1.48,0.21c-0.49,0.06-0.94,0.09-1.34,0.09c-1.23,0-2.34-0.15-3.33-0.44
		c-0.99-0.3-1.83-0.76-2.53-1.38c-0.69-0.63-1.23-1.4-1.6-2.33c-0.38-0.93-0.56-2-0.56-3.22c0-1.18,0.19-2.23,0.58-3.15
		c0.39-0.92,0.93-1.7,1.64-2.34c0.71-0.64,1.56-1.12,2.57-1.45c1.01-0.33,2.12-0.5,3.34-0.5c0.71,0,1.33,0.04,1.88,0.11
		c0.55,0.08,1.03,0.18,1.46,0.3c0.42,0.13,0.79,0.25,1.11,0.39c0.32,0.14,0.6,0.27,0.85,0.39c-0.11,0.19-0.21,0.44-0.3,0.75
		c-0.09,0.31-0.15,0.59-0.18,0.85h-0.25C537.96,172.17,537.7,171.92,537.39,171.67"/>
	<path d="M541.94,173.91c0.38-0.92,0.91-1.7,1.6-2.34c0.69-0.64,1.51-1.12,2.47-1.45c0.95-0.33,2-0.5,3.14-0.5
		c1.15,0,2.21,0.17,3.16,0.5c0.96,0.33,1.78,0.82,2.47,1.45c0.68,0.64,1.22,1.42,1.6,2.34c0.38,0.92,0.57,1.97,0.57,3.15
		c0,1.18-0.19,2.23-0.57,3.15c-0.38,0.92-0.91,1.7-1.6,2.34c-0.69,0.64-1.51,1.11-2.47,1.42c-0.96,0.31-2.01,0.47-3.16,0.47
		c-1.14,0-2.18-0.16-3.14-0.47c-0.96-0.31-1.78-0.78-2.47-1.42c-0.69-0.64-1.22-1.42-1.6-2.34c-0.38-0.92-0.57-1.97-0.57-3.15
		C541.37,175.88,541.56,174.83,541.94,173.91 M554.47,174.08c-0.29-0.84-0.7-1.53-1.22-2.08c-0.52-0.55-1.13-0.95-1.83-1.22
		c-0.7-0.27-1.46-0.39-2.28-0.39c-0.8,0-1.56,0.13-2.26,0.39c-0.7,0.27-1.31,0.67-1.83,1.22c-0.52,0.55-0.92,1.24-1.22,2.08
		c-0.29,0.84-0.44,1.83-0.44,2.98c0,1.15,0.15,2.15,0.44,2.98c0.29,0.84,0.7,1.53,1.22,2.08c0.52,0.55,1.13,0.95,1.83,1.22
		c0.7,0.26,1.45,0.39,2.26,0.39c0.82,0,1.58-0.13,2.28-0.39c0.7-0.26,1.31-0.67,1.83-1.22c0.52-0.55,0.93-1.24,1.22-2.08
		c0.29-0.84,0.44-1.83,0.44-2.98C554.91,175.91,554.76,174.91,554.47,174.08 M546.36,166.56c0.21-0.21,0.46-0.31,0.75-0.31
		c0.29,0,0.54,0.1,0.75,0.31c0.21,0.21,0.31,0.46,0.31,0.75c0,0.29-0.1,0.54-0.31,0.75c-0.21,0.21-0.46,0.31-0.75,0.31
		c-0.29,0-0.54-0.1-0.75-0.31c-0.21-0.21-0.31-0.45-0.31-0.75C546.05,167.02,546.15,166.77,546.36,166.56 M550.46,166.56
		c0.21-0.21,0.46-0.31,0.75-0.31c0.29,0,0.54,0.1,0.75,0.31c0.21,0.21,0.31,0.46,0.31,0.75c0,0.29-0.1,0.54-0.31,0.75
		c-0.21,0.21-0.46,0.31-0.75,0.31c-0.29,0-0.54-0.1-0.75-0.31c-0.21-0.21-0.31-0.45-0.31-0.75
		C550.15,167.02,550.25,166.77,550.46,166.56"/>
	<path d="M562.79,170.97c-0.36,0-0.74,0-1.13,0.01c-0.4,0.01-0.79,0.02-1.19,0.04c-0.4,0.02-0.78,0.05-1.14,0.08
		c-0.37,0.03-0.7,0.06-0.99,0.1c0.07-0.25,0.1-0.47,0.1-0.67c0-0.15-0.04-0.37-0.1-0.64c0.91,0.03,1.81,0.05,2.68,0.08
		c0.87,0.02,1.77,0.03,2.68,0.03c0.92,0,1.81-0.01,2.68-0.03c0.87-0.02,1.77-0.05,2.68-0.08c-0.07,0.28-0.1,0.5-0.1,0.67
		c0,0.18,0.03,0.39,0.1,0.64c-0.29-0.04-0.62-0.08-0.99-0.1c-0.37-0.03-0.75-0.05-1.14-0.08c-0.4-0.02-0.79-0.03-1.19-0.04
		c-0.4-0.01-0.77-0.01-1.13-0.01c-0.04,1.43-0.06,2.86-0.06,4.3v3.58c0,0.91,0.02,1.82,0.05,2.7c0.04,0.89,0.07,1.76,0.12,2.62
		c-0.32-0.03-0.66-0.04-1.02-0.04c-0.36,0-0.7,0.01-1.02,0.04c0.04-0.86,0.08-1.73,0.12-2.62c0.03-0.89,0.05-1.79,0.05-2.7v-3.58
		C562.85,173.83,562.83,172.39,562.79,170.97"/>
	<path d="M574.45,170.97c-0.36,0-0.74,0-1.13,0.01c-0.39,0.01-0.79,0.02-1.18,0.04c-0.39,0.02-0.78,0.05-1.14,0.08
		c-0.37,0.03-0.7,0.06-0.99,0.1c0.07-0.25,0.1-0.47,0.1-0.67c0-0.15-0.03-0.37-0.1-0.64c0.91,0.03,1.81,0.05,2.68,0.08
		c0.87,0.02,1.77,0.03,2.68,0.03s1.81-0.01,2.68-0.03c0.87-0.02,1.77-0.05,2.68-0.08c-0.07,0.28-0.1,0.5-0.1,0.67
		c0,0.18,0.04,0.39,0.1,0.64c-0.29-0.04-0.62-0.08-0.99-0.1c-0.37-0.03-0.75-0.05-1.14-0.08c-0.39-0.02-0.79-0.03-1.18-0.04
		c-0.4-0.01-0.77-0.01-1.13-0.01c-0.04,1.43-0.06,2.86-0.06,4.3v3.58c0,0.91,0.02,1.82,0.05,2.7c0.03,0.89,0.07,1.76,0.12,2.62
		c-0.32-0.03-0.66-0.04-1.02-0.04c-0.36,0-0.7,0.01-1.02,0.04c0.04-0.86,0.08-1.73,0.12-2.62c0.03-0.89,0.05-1.79,0.05-2.7v-3.58
		C574.52,173.83,574.49,172.39,574.45,170.97"/>
	<path d="M583.24,172.58c-0.03-0.88-0.07-1.78-0.11-2.69c0.18,0.03,0.35,0.05,0.52,0.08c0.17,0.02,0.33,0.03,0.5,0.03
		c0.17,0,0.34-0.01,0.5-0.03c0.17-0.02,0.34-0.05,0.52-0.08c-0.04,0.92-0.08,1.82-0.12,2.69c-0.03,0.88-0.05,1.78-0.05,2.69v3.58
		c0,0.92,0.02,1.82,0.05,2.7c0.04,0.89,0.07,1.76,0.12,2.62c-0.32-0.03-0.66-0.04-1.02-0.04c-0.36,0-0.7,0.01-1.02,0.04
		c0.04-0.86,0.08-1.73,0.11-2.62c0.04-0.89,0.05-1.79,0.05-2.7v-3.58C583.29,174.36,583.28,173.46,583.24,172.58"/>
	<path d="M595.79,178.77c-1.8-1.93-3.6-3.85-5.41-5.77c-0.01,0.39-0.03,0.91-0.04,1.56c-0.01,0.65-0.02,1.54-0.02,2.66
		c0,0.29,0.01,0.65,0.01,1.08c0,0.43,0.01,0.88,0.02,1.35c0.01,0.47,0.02,0.95,0.03,1.43c0.02,0.49,0.03,0.94,0.04,1.36
		c0.01,0.41,0.03,0.78,0.04,1.09c0.01,0.31,0.03,0.52,0.04,0.63c-0.22-0.03-0.46-0.04-0.73-0.04c-0.28,0-0.53,0.01-0.77,0.04
		c0.03-0.14,0.06-0.39,0.1-0.77c0.03-0.38,0.06-0.82,0.09-1.34c0.03-0.52,0.06-1.09,0.09-1.69c0.04-0.61,0.06-1.22,0.08-1.83
		c0.02-0.61,0.04-1.21,0.05-1.79c0.01-0.58,0.02-1.1,0.02-1.56c0-1.33,0-2.48-0.01-3.43c-0.01-0.96-0.02-1.67-0.05-2.14h0.33
		c0.84,0.91,1.75,1.89,2.71,2.94s1.92,2.08,2.87,3.1c0.95,1.02,1.85,1.98,2.7,2.89c0.85,0.91,1.6,1.68,2.24,2.32v-2.83
		c0-1.46-0.01-2.87-0.03-4.25c-0.02-1.38-0.07-2.68-0.14-3.9c0.28,0.07,0.52,0.1,0.71,0.1c0.16,0,0.39-0.03,0.67-0.1
		c-0.03,0.3-0.06,0.76-0.09,1.37c-0.04,0.61-0.07,1.26-0.1,1.96c-0.04,0.69-0.07,1.37-0.09,2.04c-0.03,0.67-0.04,1.2-0.04,1.6v1.25
		c0,0.47,0,0.96,0.01,1.48c0.01,0.52,0.01,1.03,0.02,1.55c0.01,0.52,0.01,1.01,0.02,1.46c0.01,0.45,0.01,0.84,0.01,1.17v0.68h-0.29
		C599.29,182.6,597.59,180.71,595.79,178.77"/>
	<path d="M616.59,171.67c-0.31-0.25-0.66-0.47-1.04-0.66c-0.38-0.19-0.8-0.34-1.27-0.46c-0.46-0.12-0.96-0.18-1.49-0.18
		c-0.86,0-1.66,0.13-2.4,0.39c-0.74,0.27-1.39,0.67-1.93,1.22c-0.55,0.55-0.98,1.24-1.29,2.08c-0.31,0.84-0.47,1.83-0.47,2.98
		c0,1.01,0.14,1.93,0.42,2.74c0.28,0.82,0.68,1.51,1.22,2.07c0.53,0.56,1.19,0.99,1.96,1.3c0.77,0.3,1.64,0.46,2.61,0.46
		c0.29,0,0.6-0.01,0.91-0.04c0.32-0.03,0.63-0.07,0.93-0.12c0.3-0.06,0.57-0.13,0.83-0.21c0.26-0.08,0.47-0.18,0.65-0.29
		c0.01-0.41,0.02-0.83,0.03-1.25c0.01-0.42,0.01-0.84,0.01-1.27c0-0.48-0.01-0.97-0.03-1.45c-0.02-0.49-0.05-0.95-0.07-1.39
		c0.35,0.07,0.68,0.1,1,0.1c0.15,0,0.31-0.01,0.46-0.02c0.15-0.01,0.3-0.04,0.43-0.08c-0.03,0.32-0.05,0.82-0.06,1.51
		c-0.01,0.69-0.02,1.59-0.02,2.71c0,0.28,0,0.56,0.01,0.84c0.01,0.28,0.01,0.57,0.01,0.84c-0.29,0.11-0.65,0.23-1.09,0.34
		c-0.43,0.12-0.9,0.21-1.39,0.29c-0.49,0.08-0.98,0.14-1.48,0.21c-0.49,0.06-0.94,0.09-1.34,0.09c-1.24,0-2.35-0.15-3.34-0.44
		c-0.99-0.3-1.84-0.76-2.53-1.38c-0.69-0.63-1.23-1.4-1.6-2.33c-0.37-0.93-0.56-2-0.56-3.22c0-1.18,0.19-2.23,0.58-3.15
		c0.39-0.92,0.93-1.7,1.64-2.34c0.71-0.64,1.56-1.12,2.57-1.45c1-0.33,2.12-0.5,3.34-0.5c0.71,0,1.33,0.04,1.88,0.11
		c0.55,0.08,1.03,0.18,1.46,0.3c0.42,0.13,0.79,0.25,1.11,0.39c0.32,0.14,0.6,0.27,0.85,0.39c-0.11,0.19-0.21,0.44-0.3,0.75
		c-0.09,0.31-0.15,0.59-0.18,0.85h-0.25C617.16,172.17,616.9,171.92,616.59,171.67"/>
	<path d="M621.69,172.55c-0.03-0.89-0.07-1.77-0.11-2.66c0.62,0.03,1.24,0.05,1.86,0.08c0.62,0.02,1.24,0.03,1.86,0.03
		c0.62,0,1.24-0.01,1.85-0.03c0.61-0.02,1.23-0.05,1.85-0.08c-0.04,0.21-0.06,0.42-0.06,0.63c0,0.21,0.02,0.42,0.06,0.62
		c-0.44-0.03-0.85-0.05-1.22-0.08c-0.37-0.03-0.76-0.06-1.16-0.08c-0.41-0.03-0.86-0.05-1.34-0.08c-0.49-0.02-1.07-0.03-1.74-0.03
		c-0.01,0.44-0.03,0.87-0.05,1.27c-0.02,0.4-0.03,0.86-0.03,1.37c0,0.54,0,1.07,0.01,1.58c0.01,0.51,0.01,0.9,0.01,1.16
		c0.61,0,1.16-0.01,1.64-0.02c0.49-0.01,0.93-0.03,1.33-0.05c0.4-0.02,0.77-0.04,1.11-0.06c0.34-0.02,0.66-0.05,0.97-0.07
		c-0.04,0.21-0.06,0.42-0.06,0.64c0,0.21,0.02,0.42,0.06,0.62c-0.36-0.04-0.78-0.08-1.26-0.11c-0.48-0.03-0.96-0.04-1.44-0.05
		c-0.47-0.01-0.93-0.01-1.35-0.02c-0.42-0.01-0.76-0.01-1.01-0.01c0,0.13,0,0.26-0.01,0.41c-0.01,0.14-0.01,0.33-0.01,0.55v0.81
		v1.25c0,0.79,0,1.44,0.01,1.95c0.01,0.51,0.02,0.9,0.03,1.16h1.45c0.53,0,1.04-0.01,1.55-0.03c0.51-0.02,0.98-0.05,1.44-0.08
		c0.45-0.03,0.84-0.09,1.17-0.15c-0.03,0.1-0.04,0.2-0.05,0.32c-0.01,0.12-0.01,0.23-0.01,0.32c0,0.22,0.02,0.4,0.06,0.54
		c-0.62-0.03-1.24-0.04-1.86-0.04h-1.88h-1.89c-0.62,0-1.26,0.01-1.89,0.04c0.04-0.89,0.08-1.77,0.11-2.65
		c0.03-0.88,0.05-1.78,0.05-2.69v-3.58C621.74,174.33,621.72,173.43,621.69,172.55"/>
	<path d="M638.85,178.77c-1.8-1.93-3.6-3.85-5.4-5.77c-0.01,0.39-0.03,0.91-0.04,1.56c-0.01,0.65-0.02,1.54-0.02,2.66
		c0,0.29,0,0.65,0.01,1.08c0.01,0.43,0.01,0.88,0.02,1.35c0.01,0.47,0.02,0.95,0.03,1.43c0.01,0.49,0.03,0.94,0.04,1.36
		c0.02,0.41,0.03,0.78,0.04,1.09c0.01,0.31,0.03,0.52,0.04,0.63c-0.22-0.03-0.46-0.04-0.73-0.04c-0.28,0-0.53,0.01-0.77,0.04
		c0.03-0.14,0.06-0.39,0.09-0.77c0.03-0.38,0.06-0.82,0.09-1.34c0.03-0.52,0.06-1.09,0.09-1.69c0.03-0.61,0.06-1.22,0.08-1.83
		c0.02-0.61,0.04-1.21,0.05-1.79c0.01-0.58,0.02-1.1,0.02-1.56c0-1.33,0-2.48-0.01-3.43c-0.01-0.96-0.02-1.67-0.05-2.14h0.33
		c0.84,0.91,1.75,1.89,2.71,2.94c0.96,1.05,1.92,2.08,2.87,3.1c0.95,1.02,1.85,1.98,2.7,2.89c0.85,0.91,1.6,1.68,2.24,2.32v-2.83
		c0-1.46-0.01-2.87-0.03-4.25c-0.02-1.38-0.07-2.68-0.14-3.9c0.28,0.07,0.52,0.1,0.71,0.1c0.17,0,0.39-0.03,0.67-0.1
		c-0.03,0.3-0.06,0.76-0.09,1.37c-0.03,0.61-0.07,1.26-0.1,1.96c-0.04,0.69-0.07,1.37-0.1,2.04c-0.03,0.67-0.04,1.2-0.04,1.6v1.25
		c0,0.47,0,0.96,0.01,1.48c0.01,0.52,0.01,1.03,0.02,1.55c0.01,0.52,0.01,1.01,0.02,1.46c0.01,0.45,0.01,0.84,0.01,1.17v0.68h-0.29
		C642.35,182.6,640.66,180.71,638.85,178.77"/>
	<polygon points="665.39,144.07 666.46,144.07 666.46,184.49 665.39,184.49 665.39,144.07 	"/>
	<path d="M767.4,169.5v9.31h9.61c0.4,0,0.78-0.02,1.14-0.06c-0.55,0.97-1.3,1.7-2.3,2.24c-0.99,0.52-2.18,0.77-3.56,0.77h-9.61
		V169.5H767.4L767.4,169.5z M767.4,152.47v8.59h9.03c0.44,0,0.86-0.02,1.27-0.07c-0.28,0.57-0.68,1.07-1.18,1.5
		c-1.18,1.01-2.78,1.52-4.8,1.52h-9.03v-11.54H767.4L767.4,152.47z M783.28,169.94c-0.21-0.29-0.44-0.57-0.67-0.83
		c-0.51-0.74-1.2-1.33-2.07-1.78c-0.56-0.33-1.07-0.58-1.59-0.78c0.96-0.37,1.85-0.95,2.67-1.74c0.83-0.81,1.49-1.79,1.99-2.95
		c0.52-1.18,0.78-2.46,0.78-3.83c0-2.23-0.5-4.17-1.49-5.82c-0.98-1.67-2.39-2.95-4.25-3.84c-1.84-0.9-3.97-1.35-6.41-1.35h-10.96
		v-2.95h15.68c2.43,0,4.56,0.45,6.4,1.35c1.85,0.88,3.27,2.16,4.24,3.84c1,1.66,1.49,3.6,1.49,5.82c0,1.38-0.26,2.66-0.77,3.84
		c-0.5,1.16-1.16,2.14-1.99,2.95c-0.82,0.79-1.72,1.37-2.68,1.74c1.73,0.66,3.17,1.79,4.33,3.39c1.16,1.6,1.74,3.58,1.74,5.93
		c0,2.43-0.52,4.5-1.55,6.21c-1.02,1.69-2.45,2.98-4.31,3.86c-0.49,0.23-0.99,0.43-1.52,0.6c0.42-0.46,0.79-0.97,1.12-1.52
		c1.03-1.71,1.55-3.78,1.55-6.21C785.02,173.52,784.44,171.55,783.28,169.94 M711.77,146.82c0.61,0.44,1.21,0.93,1.79,1.47
		l-3.92,3.86c-0.81-0.79-1.67-1.41-2.59-1.85c-0.92-0.46-1.88-0.78-2.87-0.97c-0.99-0.2-2.09-0.3-3.28-0.3
		c-1.18,0-2.23,0.16-3.16,0.48c0.14-0.49,0.34-0.94,0.6-1.37c0.59-0.96,1.43-1.7,2.54-2.24c1.11-0.53,2.42-0.8,3.95-0.8
		c1.19,0,2.29,0.1,3.28,0.31c1,0.18,1.95,0.5,2.87,0.97C711.24,146.51,711.51,146.66,711.77,146.82 M708.73,174.62
		c0.13-0.51,0.2-1.05,0.2-1.63c0-1.82-0.53-3.21-1.6-4.17c-0.48-0.48-1.04-0.83-1.69-1.07c-0.63-0.26-1.52-0.47-2.7-0.63l-4.75-0.66
		c-3.28-0.46-5.82-1.54-7.65-3.23c-1.95-1.82-2.92-4.38-2.92-7.67c0-2.34,0.54-4.4,1.63-6.18c0.92-1.51,2.17-2.73,3.77-3.67
		c-0.99,1.72-1.48,3.7-1.48,5.92c0,3.29,0.97,5.85,2.93,7.67c1.82,1.69,4.37,2.77,7.64,3.23l4.75,0.66c1.18,0.17,2.08,0.38,2.7,0.64
		c0.64,0.24,1.2,0.6,1.68,1.08c1.07,0.96,1.6,2.34,1.6,4.17c-0.01,1.95-0.74,3.47-2.21,4.55
		C710.08,174.03,709.45,174.36,708.73,174.62 M686.24,179.34l3.95-3.9c1.89,1.88,3.96,3.23,6.21,4.06c2.28,0.81,4.96,1.21,8.03,1.21
		c2.12,0,4.05-0.26,5.8-0.77c1.21-0.37,2.31-0.86,3.3-1.46c-0.67,1.16-1.55,2.17-2.64,3.04c-1.31,1.03-2.84,1.81-4.58,2.34
		c-1.75,0.52-3.68,0.77-5.79,0.77c-3.07,0-5.75-0.4-8.03-1.21C690.21,182.59,688.14,181.23,686.24,179.34 M723.92,144.07h4.71v26.38
		c0,1.77,0.34,3.31,1.02,4.64c0.13,0.25,0.28,0.5,0.43,0.73c-0.81-0.17-1.56-0.45-2.24-0.83c-1.25-0.72-2.22-1.73-2.9-3.03
		c-0.68-1.33-1.02-2.87-1.02-4.64V144.07L723.92,144.07z M751.39,170.73c0,2.72-0.63,5.14-1.87,7.26c-1.25,2.11-2.98,3.75-5.19,4.91
		c-2.19,1.16-4.65,1.74-7.4,1.74c-2.72,0-5.18-0.58-7.37-1.74c-1.27-0.67-2.38-1.5-3.34-2.5c1.83,0.73,3.83,1.1,6,1.1
		c2.74,0,5.21-0.58,7.39-1.74c2.21-1.16,3.94-2.8,5.19-4.91c1.25-2.12,1.88-4.54,1.88-7.26v-23.52h4.71V170.73L751.39,170.73z"/>
</g>
</svg>
